<svg xmlns="http://www.w3.org/2000/svg" xmlns:xlink="http://www.w3.org/1999/xlink" width="1080" zoomAndPan="magnify" viewBox="0 0 810 809.999993" height="1080" preserveAspectRatio="xMidYMid meet" version="1.2"><defs><clipPath id="09365b985a"><path d="M 140.535156 625.273438 L 154.714844 625.273438 L 154.714844 639.453125 L 140.535156 639.453125 Z M 140.535156 625.273438 "/></clipPath><clipPath id="491bb7a891"><path d="M 147.625 625.273438 C 143.707031 625.273438 140.535156 628.449219 140.535156 632.363281 C 140.535156 636.277344 143.707031 639.453125 147.625 639.453125 C 151.539062 639.453125 154.714844 636.277344 154.714844 632.363281 C 154.714844 628.449219 151.539062 625.273438 147.625 625.273438 Z M 147.625 625.273438 "/></clipPath><clipPath id="7c630e0849"><path d="M 0 186 L 810 186 L 810 724.800781 L 0 724.800781 Z M 0 186 "/></clipPath><clipPath id="df9b5764b3"><path d="M 201 85.050781 L 609 85.050781 L 609 208 L 201 208 Z M 201 85.050781 "/></clipPath></defs><g id="b5b19df8c1"><g clip-rule="nonzero" clip-path="url(#09365b985a)"><g clip-rule="nonzero" clip-path="url(#491bb7a891)"><path style=" stroke:none;fill-rule:nonzero;fill:#ffc233;fill-opacity:1;" d="M 140.535156 625.273438 L 154.714844 625.273438 L 154.714844 639.453125 L 140.535156 639.453125 Z M 140.535156 625.273438 "/></g></g><g clip-rule="nonzero" clip-path="url(#7c630e0849)"><path style=" stroke:none;fill-rule:evenodd;fill:#ffc233;fill-opacity:1;" d="M 59.601562 207.304688 C 38.382812 207.304688 21.125 224.570312 21.125 245.785156 L 21.125 664.953125 C 21.125 686.167969 38.378906 703.429688 59.597656 703.429688 L 750.222656 703.429688 C 771.441406 703.429688 788.695312 686.167969 788.695312 664.953125 L 788.695312 245.78125 C 788.695312 224.566406 771.4375 207.304688 750.222656 207.304688 Z M 750.222656 724.554688 L 59.601562 724.554688 C 26.738281 724.554688 0 697.820312 0 664.953125 L 0 245.78125 C 0 212.917969 26.734375 186.179688 59.597656 186.179688 L 750.222656 186.179688 C 783.085938 186.179688 809.816406 212.917969 809.816406 245.785156 L 809.820312 664.953125 C 809.820312 697.816406 783.085938 724.554688 750.222656 724.554688 Z M 750.222656 724.554688 "/></g><g clip-rule="nonzero" clip-path="url(#df9b5764b3)"><path style=" stroke:none;fill-rule:evenodd;fill:#ffc233;fill-opacity:1;" d="M 211.578125 207.308594 C 209.546875 207.308594 207.488281 206.722656 205.691406 205.507812 C 200.851562 202.246094 199.566406 195.683594 202.8125 190.847656 L 270.753906 89.960938 C 272.714844 87.046875 275.996094 85.296875 279.5 85.296875 L 530.304688 85.296875 C 533.820312 85.296875 537.105469 87.046875 539.066406 89.960938 L 607.007812 190.84375 C 610.257812 195.679688 608.96875 202.25 604.128906 205.507812 C 599.304688 208.765625 592.738281 207.484375 589.476562 202.644531 L 524.691406 106.421875 L 285.132812 106.421875 L 220.347656 202.644531 C 218.308594 205.671875 214.96875 207.308594 211.578125 207.308594 Z M 211.578125 207.308594 "/></g><path style=" stroke:none;fill-rule:evenodd;fill:#ffc233;fill-opacity:1;" d="M 337.90625 134.632812 C 331.472656 134.632812 326.242188 139.867188 326.242188 146.300781 C 326.242188 152.734375 331.46875 157.96875 337.90625 157.96875 L 471.917969 157.964844 C 478.351562 157.964844 483.578125 152.734375 483.578125 146.300781 C 483.582031 139.867188 478.351562 134.632812 471.914062 134.632812 Z M 471.917969 179.089844 L 337.90625 179.089844 C 319.828125 179.089844 305.117188 164.382812 305.117188 146.304688 C 305.117188 128.21875 319.824219 113.511719 337.90625 113.511719 L 471.917969 113.507812 C 489.996094 113.507812 504.703125 128.21875 504.703125 146.300781 C 504.707031 164.382812 489.992188 179.09375 471.917969 179.089844 Z M 471.917969 179.089844 "/><path style=" stroke:none;fill-rule:evenodd;fill:#ffc233;fill-opacity:1;" d="M 293.328125 288.511719 L 10.5625 288.511719 C 4.734375 288.511719 0 283.785156 0 277.953125 C 0 272.117188 4.730469 267.390625 10.5625 267.390625 L 293.328125 267.386719 C 299.160156 267.386719 303.886719 272.117188 303.886719 277.953125 C 303.886719 283.785156 299.15625 288.511719 293.328125 288.511719 Z M 799.261719 288.511719 L 516.492188 288.511719 C 510.648438 288.511719 505.933594 283.785156 505.933594 277.953125 C 505.933594 272.117188 510.644531 267.390625 516.492188 267.390625 L 799.261719 267.386719 C 805.089844 267.386719 809.820312 272.117188 809.820312 277.953125 C 809.820312 283.785156 805.085938 288.511719 799.261719 288.511719 Z M 799.261719 288.511719 "/><path style=" stroke:none;fill-rule:evenodd;fill:#ffc233;fill-opacity:1;" d="M 293.328125 643.34375 L 10.5625 643.34375 C 4.734375 643.34375 0 638.613281 0 632.78125 C 0 626.949219 4.730469 622.21875 10.5625 622.21875 L 293.328125 622.21875 C 299.160156 622.21875 303.886719 626.949219 303.886719 632.78125 C 303.886719 638.613281 299.15625 643.34375 293.328125 643.34375 Z M 799.261719 643.34375 L 516.492188 643.34375 C 510.648438 643.34375 505.933594 638.613281 505.933594 632.78125 C 505.933594 626.949219 510.644531 622.21875 516.492188 622.21875 L 799.261719 622.21875 C 805.089844 622.21875 809.820312 626.949219 809.820312 632.78125 C 809.820312 638.613281 805.085938 643.34375 799.261719 643.34375 Z M 799.261719 643.34375 "/><path style=" stroke:none;fill-rule:evenodd;fill:#ffc233;fill-opacity:1;" d="M 404.910156 256.359375 C 295.179688 256.359375 205.894531 345.636719 205.894531 455.367188 C 205.894531 565.097656 295.179688 654.378906 404.910156 654.378906 C 514.640625 654.378906 603.925781 565.101562 603.925781 455.367188 C 603.925781 345.632812 514.640625 256.359375 404.910156 256.359375 Z M 404.910156 675.5 C 283.535156 675.5 184.769531 576.75 184.769531 455.367188 C 184.769531 333.988281 283.535156 235.234375 404.910156 235.234375 C 526.289062 235.234375 625.03125 333.988281 625.03125 455.367188 C 625.035156 576.75 526.285156 675.5 404.910156 675.5 Z M 404.910156 675.5 "/><path style=" stroke:none;fill-rule:evenodd;fill:#ffc233;fill-opacity:1;" d="M 140.816406 207.304688 C 134.984375 207.304688 130.25 202.578125 130.25 196.746094 L 130.253906 156.132812 C 130.253906 139.5625 116.773438 126.085938 100.214844 126.085938 C 83.640625 126.085938 70.160156 139.5625 70.160156 156.132812 L 70.164062 196.742188 C 70.164062 202.574219 65.429688 207.304688 59.597656 207.304688 C 53.769531 207.304688 49.035156 202.578125 49.035156 196.746094 L 49.039062 156.132812 C 49.039062 127.914062 71.992188 104.960938 100.214844 104.960938 C 128.421875 104.960938 151.375 127.914062 151.375 156.132812 L 151.378906 196.742188 C 151.378906 202.574219 146.644531 207.304688 140.816406 207.304688 Z M 140.816406 207.304688 "/><path style=" stroke:none;fill-rule:evenodd;fill:#ffc233;fill-opacity:1;" d="M 404.910156 306.816406 C 323 306.816406 256.359375 373.457031 256.359375 455.367188 C 256.359375 537.277344 322.996094 603.917969 404.910156 603.917969 C 486.824219 603.917969 553.460938 537.277344 553.460938 455.367188 C 553.460938 373.453125 486.820312 306.816406 404.910156 306.816406 Z M 404.910156 625.042969 C 311.351562 625.042969 235.234375 548.925781 235.234375 455.367188 C 235.234375 361.804688 311.351562 285.691406 404.910156 285.691406 C 498.472656 285.691406 574.585938 361.808594 574.585938 455.367188 C 574.585938 548.925781 498.46875 625.042969 404.910156 625.042969 Z M 404.910156 625.042969 "/><path style=" stroke:none;fill-rule:evenodd;fill:#ffc233;fill-opacity:1;" d="M 361.636719 393.585938 C 343.589844 393.585938 328.898438 407.953125 328.898438 425.609375 C 328.902344 461.472656 366.363281 500.480469 404.910156 538.535156 C 443.453125 500.476562 480.917969 461.46875 480.917969 425.609375 C 480.917969 407.953125 466.230469 393.585938 448.183594 393.585938 C 432.433594 393.585938 424.511719 399.703125 414.316406 419.746094 C 412.519531 423.292969 408.886719 425.527344 404.910156 425.527344 C 400.933594 425.523438 397.296875 423.292969 395.484375 419.75 C 385.308594 399.699219 377.382812 393.585938 361.636719 393.585938 Z M 404.910156 563.921875 C 402.234375 563.921875 399.554688 562.910156 397.5 560.890625 C 353.398438 517.496094 307.773438 472.621094 307.773438 425.609375 C 307.777344 396.304688 331.925781 372.464844 361.632812 372.464844 C 382.335938 372.464844 395.023438 380.808594 404.910156 394.398438 C 414.792969 380.804688 427.484375 372.464844 448.183594 372.464844 C 477.875 372.464844 502.042969 396.304688 502.042969 425.609375 C 502.042969 472.613281 456.421875 517.492188 412.320312 560.886719 C 410.265625 562.90625 407.585938 563.917969 404.910156 563.921875 Z M 404.910156 563.921875 "/></g></svg>