<svg xmlns="http://www.w3.org/2000/svg" xmlns:xlink="http://www.w3.org/1999/xlink" width="1080" zoomAndPan="magnify" viewBox="0 0 810 809.999993" height="1080" preserveAspectRatio="xMidYMid meet" version="1.2"><defs><clipPath id="185bcf6c1a"><path d="M 127.359375 655.308594 L 141.539062 655.308594 L 141.539062 669.488281 L 127.359375 669.488281 Z M 127.359375 655.308594 "/></clipPath><clipPath id="aed052467f"><path d="M 134.449219 655.308594 C 130.535156 655.308594 127.359375 658.484375 127.359375 662.398438 C 127.359375 666.316406 130.535156 669.488281 134.449219 669.488281 C 138.367188 669.488281 141.539062 666.316406 141.539062 662.398438 C 141.539062 658.484375 138.367188 655.308594 134.449219 655.308594 Z M 134.449219 655.308594 "/></clipPath></defs><g id="95b5d72118"><g clip-rule="nonzero" clip-path="url(#185bcf6c1a)"><g clip-rule="nonzero" clip-path="url(#aed052467f)"><path style=" stroke:none;fill-rule:nonzero;fill:#ffc233;fill-opacity:1;" d="M 127.359375 655.308594 L 141.539062 655.308594 L 141.539062 669.488281 L 127.359375 669.488281 Z M 127.359375 655.308594 "/></g></g><path style=" stroke:none;fill-rule:nonzero;fill:#ffc233;fill-opacity:1;" d="M 785.9375 529.476562 C 779.980469 541.175781 770.074219 550.007812 757.910156 554.695312 C 757.03125 555.027344 756.164062 555.40625 755.261719 555.695312 C 752.683594 556.53125 750.066406 557.105469 747.445312 557.542969 C 742.203125 558.40625 736.914062 558.472656 731.703125 557.746094 C 725.976562 556.945312 720.34375 555.253906 715.039062 552.550781 C 713.644531 551.835938 712.300781 551.050781 710.984375 550.230469 C 708.464844 548.65625 706.125 546.867188 703.9375 544.917969 C 701.917969 543.132812 700.027344 541.21875 698.320312 539.140625 C 694.15625 534.097656 690.90625 528.285156 688.820312 521.875 C 684.46875 508.488281 685.582031 494.203125 691.96875 481.652344 C 698.355469 469.101562 709.25 459.792969 722.640625 455.433594 C 728.003906 453.6875 733.519531 452.816406 739.007812 452.816406 C 747.203125 452.816406 755.351562 454.757812 762.863281 458.585938 C 775.414062 464.96875 784.722656 475.859375 789.078125 489.253906 C 793.4375 502.640625 792.324219 516.925781 785.9375 529.476562 Z M 675.851562 581.53125 L 654.703125 568.542969 L 694.273438 555.667969 C 698.53125 559.460938 703.261719 562.78125 708.480469 565.433594 C 710.824219 566.632812 713.222656 567.679688 715.652344 568.582031 Z M 712.933594 621.289062 C 710.332031 621.59375 707.738281 622.007812 705.148438 622.625 C 699.460938 623.984375 694.089844 626.113281 689.0625 628.796875 L 650.378906 605.03125 L 634.1875 595.089844 L 613.039062 582.097656 L 604.953125 577.125 L 596.855469 572.15625 L 501.949219 513.851562 L 490.5625 506.863281 C 494.421875 505.445312 498.242188 504.6875 501.949219 504.363281 C 519.753906 502.785156 534.636719 511.753906 535.523438 512.304688 L 620.460938 564.480469 L 628.546875 569.453125 L 636.644531 574.421875 L 657.785156 587.410156 L 665.886719 592.386719 L 673.976562 597.351562 Z M 725.933594 635.539062 C 731.128906 636.039062 736.289062 637.3125 741.261719 639.414062 C 743.679688 640.429688 746.054688 641.636719 748.359375 643.054688 C 749.175781 643.546875 749.914062 644.113281 750.691406 644.644531 C 773.5625 660.4375 780.40625 691.605469 765.683594 715.5625 C 758.316406 727.5625 746.71875 735.96875 733.019531 739.246094 C 719.328125 742.503906 705.171875 740.265625 693.175781 732.886719 C 681.175781 725.519531 672.769531 713.914062 669.492188 700.214844 C 666.222656 686.523438 668.472656 672.375 675.84375 660.378906 C 679.425781 654.550781 683.96875 649.679688 689.132812 645.816406 C 691.300781 644.203125 693.566406 642.753906 695.921875 641.5 C 698.539062 640.109375 701.253906 638.941406 704.054688 638.011719 C 709.460938 636.207031 715.128906 635.261719 720.855469 635.261719 C 722.546875 635.261719 724.242188 635.371094 725.933594 635.539062 Z M 517.667969 633.011719 C 517.558594 633.039062 514.265625 634.09375 509.179688 634.804688 L 509.179688 615.894531 L 594.976562 587.976562 L 616.128906 600.96875 Z M 367.277344 795.5 L 142.667969 795.5 L 142.667969 769.578125 C 142.667969 762.972656 148.046875 757.597656 154.660156 757.597656 L 355.292969 757.597656 C 361.898438 757.597656 367.277344 762.972656 367.277344 769.578125 Z M 769.425781 445.695312 C 753.433594 437.550781 735.234375 436.132812 718.164062 441.683594 C 701.101562 447.234375 687.214844 459.097656 679.078125 475.089844 C 670.9375 491.085938 669.511719 509.289062 675.066406 526.351562 C 677.128906 532.679688 680.066406 538.566406 683.742188 543.886719 L 638.527344 558.601562 L 543.144531 500.015625 C 542.085938 499.347656 524.136719 488.367188 501.949219 489.8125 C 492.363281 490.4375 482 493.375 471.855469 500.480469 C 469.859375 501.875 468.703125 504.1875 468.777344 506.621094 C 468.847656 509.054688 470.140625 511.289062 472.214844 512.566406 L 501.949219 530.828125 L 578.796875 578.035156 L 509.179688 600.6875 L 509.179688 572.46875 C 509.179688 568.472656 505.945312 565.238281 501.949219 565.238281 C 497.953125 565.238281 494.71875 568.472656 494.71875 572.46875 L 494.71875 782.921875 C 494.71875 789.863281 489.078125 795.5 482.148438 795.5 L 381.738281 795.5 L 381.738281 769.578125 C 381.738281 754.996094 369.871094 743.132812 355.292969 743.132812 L 154.660156 743.132812 C 140.074219 743.132812 128.207031 754.996094 128.207031 769.578125 L 128.207031 795.5 L 27.804688 795.5 C 20.871094 795.5 15.226562 789.863281 15.226562 782.921875 L 15.226562 362.007812 C 15.226562 355.066406 20.871094 349.4375 27.804688 349.4375 L 203.980469 349.4375 C 207.96875 349.4375 211.210938 346.195312 211.210938 342.199219 C 211.210938 338.207031 207.96875 334.96875 203.980469 334.96875 L 27.804688 334.96875 C 12.894531 334.96875 0.765625 347.097656 0.765625 362.007812 L 0.765625 782.921875 C 0.765625 797.832031 12.894531 809.960938 27.804688 809.960938 L 482.148438 809.960938 C 497.058594 809.960938 509.179688 797.832031 509.179688 782.921875 L 509.179688 649.410156 C 516.613281 648.546875 521.652344 646.925781 522.203125 646.738281 L 632.3125 610.910156 L 676.066406 637.792969 C 671.242188 642.101562 667.003906 647.136719 663.523438 652.804688 C 644.136719 684.367188 654.042969 725.816406 685.601562 745.214844 C 696.320312 751.789062 708.375 755.175781 720.644531 755.175781 C 725.882812 755.175781 731.160156 754.558594 736.382812 753.308594 C 753.839844 749.136719 768.621094 738.417969 778.007812 723.136719 C 797.40625 691.566406 787.5 650.117188 755.933594 630.726562 L 692.039062 591.480469 L 759.738281 569.445312 C 776.804688 563.894531 790.683594 552.027344 798.820312 536.039062 C 806.960938 520.042969 808.386719 501.839844 802.839844 484.777344 C 797.28125 467.714844 785.421875 453.835938 769.425781 445.695312 "/><path style=" stroke:none;fill-rule:nonzero;fill:#ffc233;fill-opacity:1;" d="M 756.199219 514.347656 C 753.859375 518.953125 749.855469 522.378906 744.945312 523.976562 C 734.785156 527.28125 723.847656 521.707031 720.542969 511.554688 C 718.941406 506.644531 719.355469 501.390625 721.703125 496.78125 C 724.042969 492.175781 728.046875 488.753906 732.960938 487.152344 C 743.105469 483.867188 754.058594 489.421875 757.363281 499.574219 C 758.960938 504.492188 758.546875 509.738281 756.199219 514.347656 Z M 754.289062 475.425781 C 746.238281 471.324219 737.074219 470.613281 728.492188 473.40625 C 719.902344 476.195312 712.910156 482.167969 708.8125 490.226562 C 704.714844 498.273438 703.996094 507.441406 706.792969 516.03125 C 711.4375 530.296875 724.71875 539.390625 738.976562 539.390625 C 742.4375 539.390625 745.953125 538.851562 749.421875 537.726562 C 767.152344 531.953125 776.890625 512.835938 771.113281 495.097656 C 768.316406 486.507812 762.339844 479.515625 754.289062 475.425781 "/><path style=" stroke:none;fill-rule:nonzero;fill:#ffc233;fill-opacity:1;" d="M 501.949219 456.691406 C 505.945312 456.691406 509.179688 453.449219 509.179688 449.460938 L 509.179688 362.007812 C 509.179688 347.097656 497.058594 334.96875 482.148438 334.96875 L 454.3125 334.96875 C 450.324219 334.96875 447.082031 338.207031 447.082031 342.199219 C 447.082031 346.195312 450.324219 349.4375 454.3125 349.4375 L 482.148438 349.4375 C 489.078125 349.4375 494.71875 355.066406 494.71875 362.007812 L 494.71875 449.460938 C 494.71875 453.457031 497.953125 456.691406 501.949219 456.691406 "/><path style=" stroke:none;fill-rule:nonzero;fill:#ffc233;fill-opacity:1;" d="M 367.277344 472.148438 L 367.277344 672.78125 C 367.277344 679.386719 361.898438 684.765625 355.292969 684.765625 L 154.660156 684.765625 C 148.046875 684.765625 142.667969 679.386719 142.667969 672.78125 L 142.667969 472.148438 C 142.667969 465.542969 148.046875 460.164062 154.660156 460.164062 L 355.292969 460.164062 C 361.898438 460.164062 367.277344 465.542969 367.277344 472.148438 Z M 128.207031 472.148438 L 128.207031 672.78125 C 128.207031 687.367188 140.074219 699.226562 154.660156 699.226562 L 355.292969 699.226562 C 369.871094 699.226562 381.738281 687.367188 381.738281 672.78125 L 381.738281 472.148438 C 381.738281 457.570312 369.871094 445.703125 355.292969 445.703125 L 154.660156 445.703125 C 140.074219 445.703125 128.207031 457.570312 128.207031 472.148438 "/><path style=" stroke:none;fill-rule:nonzero;fill:#ffc233;fill-opacity:1;" d="M 85.703125 603.984375 L 58.828125 603.984375 L 58.828125 540.953125 L 85.703125 540.953125 Z M 100.164062 533.722656 C 100.164062 529.722656 96.921875 526.488281 92.933594 526.488281 L 51.597656 526.488281 C 47.601562 526.488281 44.367188 529.722656 44.367188 533.722656 L 44.367188 611.214844 C 44.367188 615.214844 47.601562 618.445312 51.597656 618.445312 L 92.933594 618.445312 C 96.921875 618.445312 100.164062 615.214844 100.164062 611.214844 L 100.164062 533.722656 "/><path style=" stroke:none;fill-rule:nonzero;fill:#ffc233;fill-opacity:1;" d="M 85.703125 464.835938 L 58.828125 464.835938 L 58.828125 401.800781 L 85.703125 401.800781 Z M 100.164062 394.570312 C 100.164062 390.582031 96.921875 387.339844 92.933594 387.339844 L 51.597656 387.339844 C 47.601562 387.339844 44.367188 390.582031 44.367188 394.570312 L 44.367188 472.074219 C 44.367188 476.0625 47.601562 479.304688 51.597656 479.304688 L 92.933594 479.304688 C 96.921875 479.304688 100.164062 476.0625 100.164062 472.074219 L 100.164062 394.570312 "/><path style=" stroke:none;fill-rule:nonzero;fill:#ffc233;fill-opacity:1;" d="M 85.703125 743.132812 L 58.828125 743.132812 L 58.828125 680.09375 L 85.703125 680.09375 Z M 92.933594 665.632812 L 51.597656 665.632812 C 47.601562 665.632812 44.367188 668.867188 44.367188 672.863281 L 44.367188 750.367188 C 44.367188 754.355469 47.601562 757.597656 51.597656 757.597656 L 92.933594 757.597656 C 96.921875 757.597656 100.164062 754.355469 100.164062 750.367188 L 100.164062 672.863281 C 100.164062 668.867188 96.921875 665.632812 92.933594 665.632812 "/><path style=" stroke:none;fill-rule:nonzero;fill:#ffc233;fill-opacity:1;" d="M 451.253906 603.984375 L 424.382812 603.984375 L 424.382812 540.953125 L 451.253906 540.953125 Z M 465.714844 533.722656 C 465.714844 529.722656 462.484375 526.488281 458.484375 526.488281 L 417.152344 526.488281 C 413.160156 526.488281 409.921875 529.722656 409.921875 533.722656 L 409.921875 611.214844 C 409.921875 615.214844 413.160156 618.445312 417.152344 618.445312 L 458.484375 618.445312 C 460.992188 618.445312 463.203125 617.167969 464.503906 615.226562 C 465.265625 614.078125 465.714844 612.699219 465.714844 611.214844 L 465.714844 533.722656 "/><path style=" stroke:none;fill-rule:nonzero;fill:#ffc233;fill-opacity:1;" d="M 451.253906 464.835938 L 424.382812 464.835938 L 424.382812 401.800781 L 451.253906 401.800781 Z M 465.714844 394.570312 C 465.714844 390.582031 462.484375 387.339844 458.484375 387.339844 L 417.152344 387.339844 C 413.160156 387.339844 409.921875 390.582031 409.921875 394.570312 L 409.921875 472.074219 C 409.921875 476.0625 413.160156 479.304688 417.152344 479.304688 L 458.484375 479.304688 C 462.484375 479.304688 465.714844 476.0625 465.714844 472.074219 L 465.714844 394.570312 "/><path style=" stroke:none;fill-rule:nonzero;fill:#ffc233;fill-opacity:1;" d="M 451.253906 743.132812 L 424.382812 743.132812 L 424.382812 680.09375 L 451.253906 680.09375 Z M 458.484375 665.632812 L 417.152344 665.632812 C 413.160156 665.632812 409.921875 668.867188 409.921875 672.863281 L 409.921875 750.367188 C 409.921875 754.355469 413.160156 757.597656 417.152344 757.597656 L 458.484375 757.597656 C 462.484375 757.597656 465.714844 754.355469 465.714844 750.367188 L 465.714844 672.863281 C 465.714844 668.867188 462.484375 665.632812 458.484375 665.632812 "/><path style=" stroke:none;fill-rule:nonzero;fill:#ffc233;fill-opacity:1;" d="M 238.492188 531.367188 L 295.644531 572.46875 L 238.492188 613.570312 Z M 227.960938 634.113281 C 229.007812 634.644531 230.132812 634.914062 231.261719 634.914062 C 232.75 634.914062 234.234375 634.449219 235.484375 633.546875 L 312.25 578.339844 C 314.140625 576.980469 315.261719 574.792969 315.261719 572.46875 C 315.261719 570.144531 314.140625 567.957031 312.25 566.597656 L 235.484375 511.382812 C 233.28125 509.796875 230.382812 509.585938 227.960938 510.816406 C 225.546875 512.058594 224.03125 514.542969 224.03125 517.253906 L 224.03125 627.675781 C 224.03125 630.386719 225.546875 632.878906 227.960938 634.113281 "/><path style=" stroke:none;fill-rule:nonzero;fill:#ffc233;fill-opacity:1;" d="M 211.574219 140.808594 C 211.574219 144.667969 208.425781 147.804688 204.574219 147.804688 L 146.34375 147.804688 C 136.035156 147.804688 127.640625 156.199219 127.640625 166.511719 L 127.640625 227.824219 C 127.640625 244.078125 114.414062 257.304688 98.148438 257.304688 L 63.726562 257.304688 C 56.328125 257.304688 50.304688 251.289062 50.304688 243.882812 C 50.304688 236.484375 56.328125 230.460938 63.726562 230.460938 L 99.457031 230.460938 C 103.449219 230.460938 106.683594 227.21875 106.683594 223.230469 L 106.683594 136.351562 C 106.683594 119.542969 120.359375 105.875 137.160156 105.875 L 204.574219 105.875 C 208.425781 105.875 211.574219 109.015625 211.574219 112.871094 Z M 204.574219 91.40625 L 137.160156 91.40625 C 112.378906 91.40625 92.21875 111.570312 92.21875 136.351562 L 92.21875 216 L 63.726562 216 C 48.347656 216 35.84375 228.503906 35.84375 243.882812 C 35.84375 259.261719 48.347656 271.765625 63.726562 271.765625 L 98.148438 271.765625 C 122.386719 271.765625 142.101562 252.050781 142.101562 227.824219 L 142.101562 166.511719 C 142.101562 164.171875 144.003906 162.265625 146.34375 162.265625 L 204.574219 162.265625 C 216.40625 162.265625 226.035156 152.636719 226.035156 140.808594 L 226.035156 112.871094 C 226.035156 101.035156 216.40625 91.40625 204.574219 91.40625 "/><path style=" stroke:none;fill-rule:nonzero;fill:#ffc233;fill-opacity:1;" d="M 717.417969 262.449219 L 717.417969 392.792969 L 693.863281 392.792969 C 676.097656 392.792969 661.640625 378.335938 661.640625 360.5625 L 661.640625 294.671875 C 661.640625 276.902344 676.097656 262.449219 693.863281 262.449219 Z M 522.617188 49.425781 C 408.777344 49.425781 315.957031 140.800781 313.472656 254.050781 C 313.414062 254.425781 313.355469 254.8125 313.355469 255.210938 L 313.355469 392.792969 L 270.589844 392.792969 L 270.589844 266.527344 C 270.589844 127.558594 383.648438 14.5 522.617188 14.5 C 661.585938 14.5 774.644531 127.558594 774.644531 266.527344 L 774.644531 392.792969 L 731.878906 392.792969 L 731.878906 258.6875 C 731.878906 258.640625 731.878906 258.589844 731.878906 258.546875 L 731.878906 255.210938 C 731.878906 254.835938 731.820312 254.464844 731.761719 254.09375 C 729.304688 140.820312 636.460938 49.425781 522.617188 49.425781 Z M 351.371094 262.449219 C 369.136719 262.449219 383.585938 276.902344 383.585938 294.671875 L 383.585938 360.5625 C 383.585938 378.335938 369.136719 392.792969 351.371094 392.792969 L 327.816406 392.792969 L 327.816406 262.449219 Z M 647.179688 294.671875 L 647.179688 360.5625 C 647.179688 386.308594 668.125 407.253906 693.863281 407.253906 L 781.875 407.253906 C 785.871094 407.253906 789.105469 404.019531 789.105469 400.023438 L 789.105469 266.527344 C 789.105469 119.585938 669.554688 0.0390625 522.617188 0.0390625 C 375.671875 0.0390625 256.128906 119.585938 256.128906 266.527344 L 256.128906 400.023438 C 256.128906 404.019531 259.363281 407.253906 263.359375 407.253906 L 351.371094 407.253906 C 377.109375 407.253906 398.054688 386.308594 398.054688 360.5625 L 398.054688 294.671875 C 398.054688 268.925781 377.109375 247.980469 351.371094 247.980469 L 328.121094 247.980469 C 333.703125 145.53125 418.792969 63.886719 522.617188 63.886719 C 626.433594 63.886719 711.53125 145.53125 717.113281 247.980469 L 693.863281 247.980469 C 668.125 247.980469 647.179688 268.925781 647.179688 294.671875 "/><path style=" stroke:none;fill-rule:nonzero;fill:#ffc233;fill-opacity:1;" d="M 704.269531 677.832031 C 707.917969 671.894531 714.285156 668.609375 720.796875 668.609375 C 724.253906 668.609375 727.75 669.542969 730.90625 671.472656 C 739.996094 677.054688 742.851562 689.003906 737.261719 698.101562 C 731.675781 707.199219 719.734375 710.046875 710.628906 704.46875 C 706.226562 701.757812 703.144531 697.496094 701.9375 692.460938 C 700.730469 687.433594 701.566406 682.238281 704.269531 677.832031 Z M 691.945312 670.269531 C 687.214844 677.964844 685.769531 687.039062 687.875 695.828125 C 689.96875 704.613281 695.363281 712.0625 703.066406 716.785156 C 708.574219 720.171875 714.675781 721.785156 720.707031 721.785156 C 732.089844 721.785156 743.207031 716.058594 749.589844 705.671875 C 759.347656 689.78125 754.363281 668.910156 738.46875 659.148438 C 722.578125 649.398438 701.707031 654.375 691.945312 670.269531 "/></g></svg>