<svg xmlns="http://www.w3.org/2000/svg" xmlns:xlink="http://www.w3.org/1999/xlink" width="1080" zoomAndPan="magnify" viewBox="0 0 810 809.999993" height="1080" preserveAspectRatio="xMidYMid meet" version="1.2"><defs><clipPath id="113fe03da8"><path d="M 148.796875 535.363281 L 162.976562 535.363281 L 162.976562 549.542969 L 148.796875 549.542969 Z M 148.796875 535.363281 "/></clipPath><clipPath id="eff90f697a"><path d="M 155.886719 535.363281 C 151.96875 535.363281 148.796875 538.535156 148.796875 542.453125 C 148.796875 546.367188 151.96875 549.542969 155.886719 549.542969 C 159.800781 549.542969 162.976562 546.367188 162.976562 542.453125 C 162.976562 538.535156 159.800781 535.363281 155.886719 535.363281 Z M 155.886719 535.363281 "/></clipPath></defs><g id="a0a5b685fb"><path style=" stroke:none;fill-rule:nonzero;fill:#ffc23b;fill-opacity:1;" d="M 759.878906 575.546875 L 744.457031 568.613281 C 747.394531 562.042969 750.132812 555.390625 752.679688 548.660156 C 755.222656 541.925781 757.5625 535.125 759.703125 528.253906 C 761.84375 521.382812 763.78125 514.453125 765.507812 507.46875 C 767.238281 500.480469 768.757812 493.449219 770.070312 486.375 C 771.382812 479.296875 772.488281 472.191406 773.378906 465.046875 C 774.269531 457.90625 774.949219 450.746094 775.414062 443.5625 C 775.878906 436.382812 776.132812 429.191406 776.171875 421.996094 C 776.214844 414.796875 776.039062 407.605469 775.65625 400.417969 C 775.269531 393.234375 774.667969 386.0625 773.859375 378.914062 C 773.046875 371.761719 772.023438 364.640625 770.789062 357.550781 C 769.558594 350.460938 768.113281 343.414062 766.464844 336.40625 C 764.8125 329.402344 762.953125 322.453125 760.890625 315.558594 C 758.828125 308.664062 756.5625 301.835938 754.09375 295.074219 C 751.625 288.316406 748.957031 281.632812 746.09375 275.03125 C 743.230469 268.429688 740.171875 261.917969 736.921875 255.496094 C 733.671875 249.074219 730.230469 242.757812 726.605469 236.539062 L 741.199219 228 C 744.996094 234.507812 748.59375 241.121094 751.996094 247.839844 C 755.398438 254.558594 758.601562 261.375 761.597656 268.285156 C 764.597656 275.195312 767.386719 282.1875 769.972656 289.261719 C 772.554688 296.335938 774.925781 303.484375 777.085938 310.699219 C 779.246094 317.914062 781.191406 325.1875 782.921875 332.519531 C 784.648438 339.851562 786.160156 347.226562 787.449219 354.648438 C 788.742188 362.070312 789.8125 369.523438 790.660156 377.007812 C 791.507812 384.492188 792.136719 391.996094 792.539062 399.515625 C 792.945312 407.039062 793.125 414.5625 793.082031 422.097656 C 793.042969 429.628906 792.777344 437.152344 792.289062 444.671875 C 791.800781 452.1875 791.089844 459.683594 790.15625 467.15625 C 789.222656 474.628906 788.070312 482.070312 786.695312 489.476562 C 785.320312 496.882812 783.730469 504.242188 781.917969 511.554688 C 780.105469 518.863281 778.082031 526.117188 775.839844 533.308594 C 773.601562 540.5 771.148438 547.617188 768.484375 554.664062 C 765.824219 561.710938 762.953125 568.671875 759.878906 575.546875 Z M 759.878906 575.546875 "/><path style=" stroke:none;fill-rule:nonzero;fill:#ffc23b;fill-opacity:1;" d="M 699.6875 196.808594 C 699.160156 196.132812 698.695312 195.53125 698.164062 194.949219 C 695.039062 190.980469 691.828125 187.078125 688.539062 183.246094 C 685.25 179.410156 681.882812 175.644531 678.4375 171.953125 C 674.988281 168.257812 671.46875 164.636719 667.871094 161.089844 C 664.273438 157.542969 660.605469 154.070312 656.863281 150.675781 C 653.121094 147.28125 649.308594 143.964844 645.429688 140.730469 C 641.550781 137.496094 637.605469 134.339844 633.59375 131.269531 C 629.582031 128.199219 625.507812 125.210938 621.371094 122.3125 C 617.238281 119.410156 613.042969 116.59375 608.789062 113.867188 C 604.535156 111.140625 600.226562 108.503906 595.867188 105.957031 C 591.503906 103.410156 587.089844 100.953125 582.625 98.589844 C 578.160156 96.226562 573.644531 93.957031 569.085938 91.78125 C 564.527344 89.605469 559.921875 87.523438 555.277344 85.542969 C 550.632812 83.558594 545.945312 81.671875 541.21875 79.882812 C 536.496094 78.09375 531.734375 76.40625 526.941406 74.8125 C 522.144531 73.222656 517.320312 71.734375 512.460938 70.34375 C 507.605469 68.957031 502.71875 67.667969 497.808594 66.480469 C 492.898438 65.296875 487.964844 64.214844 483.007812 63.234375 C 478.050781 62.253906 473.078125 61.375 468.085938 60.601562 C 463.09375 59.828125 458.085938 59.160156 453.066406 58.597656 C 448.046875 58.03125 443.015625 57.574219 437.976562 57.21875 C 432.9375 56.863281 427.890625 56.613281 422.839844 56.46875 C 417.789062 56.324219 412.738281 56.285156 407.6875 56.351562 C 402.636719 56.414062 397.589844 56.585938 392.542969 56.863281 C 387.5 57.136719 382.460938 57.519531 377.433594 58.003906 C 372.40625 58.492188 367.390625 59.082031 362.382812 59.777344 C 357.378906 60.472656 352.394531 61.269531 347.421875 62.171875 C 342.453125 63.074219 337.5 64.082031 332.574219 65.1875 C 327.644531 66.296875 322.738281 67.507812 317.863281 68.820312 C 312.984375 70.136719 308.132812 71.550781 303.3125 73.0625 C 298.496094 74.578125 293.707031 76.195312 288.957031 77.910156 C 284.203125 79.625 279.488281 81.4375 274.8125 83.347656 C 270.136719 85.257812 265.5 87.265625 260.90625 89.371094 L 253.839844 73.996094 C 258.640625 71.796875 263.488281 69.699219 268.375 67.703125 C 273.265625 65.703125 278.195312 63.808594 283.164062 62.015625 C 288.128906 60.222656 293.132812 58.535156 298.171875 56.949219 C 303.210938 55.363281 308.28125 53.886719 313.378906 52.511719 C 318.480469 51.136719 323.605469 49.871094 328.757812 48.710938 C 333.910156 47.550781 339.085938 46.496094 344.28125 45.550781 C 349.480469 44.605469 354.691406 43.769531 359.925781 43.042969 C 365.15625 42.316406 370.398438 41.695312 375.65625 41.1875 C 380.914062 40.675781 386.179688 40.277344 391.453125 39.984375 C 396.726562 39.695312 402.003906 39.515625 407.285156 39.441406 C 412.566406 39.371094 417.847656 39.410156 423.125 39.558594 C 428.40625 39.707031 433.679688 39.96875 438.949219 40.335938 C 444.21875 40.703125 449.476562 41.179688 454.726562 41.769531 C 459.976562 42.355469 465.210938 43.050781 470.429688 43.855469 C 475.648438 44.660156 480.851562 45.574219 486.03125 46.597656 C 491.214844 47.617188 496.375 48.746094 501.507812 49.980469 C 506.644531 51.21875 511.75 52.5625 516.828125 54.007812 C 521.910156 55.457031 526.957031 57.011719 531.96875 58.671875 C 536.984375 60.328125 541.960938 62.089844 546.902344 63.957031 C 551.84375 65.824219 556.746094 67.792969 561.605469 69.859375 C 566.464844 71.929688 571.277344 74.101562 576.046875 76.371094 C 580.816406 78.640625 585.535156 81.007812 590.207031 83.476562 C 594.875 85.941406 599.492188 88.503906 604.058594 91.164062 C 608.621094 93.824219 613.128906 96.574219 617.578125 99.421875 C 622.027344 102.269531 626.414062 105.207031 630.742188 108.234375 C 635.066406 111.261719 639.328125 114.378906 643.527344 117.585938 C 647.722656 120.792969 651.851562 124.085938 655.914062 127.464844 C 659.972656 130.839844 663.960938 134.304688 667.878906 137.847656 C 671.792969 141.390625 675.632812 145.015625 679.398438 148.71875 C 683.164062 152.421875 686.851562 156.203125 690.460938 160.0625 C 694.066406 163.917969 697.59375 167.847656 701.039062 171.851562 C 704.484375 175.855469 707.84375 179.929688 711.117188 184.074219 C 711.566406 184.558594 712.25 185.4375 712.945312 186.308594 Z M 699.6875 196.808594 "/><path style=" stroke:none;fill-rule:nonzero;fill:#ffc23b;fill-opacity:1;" d="M 66.726562 578.660156 C 64.714844 574.265625 62.785156 569.832031 60.941406 565.367188 C 59.097656 560.898438 57.339844 556.398438 55.667969 551.863281 C 53.996094 547.328125 52.410156 542.765625 50.910156 538.167969 C 49.414062 533.574219 48.003906 528.953125 46.679688 524.304688 C 45.355469 519.65625 44.121094 514.984375 42.976562 510.289062 C 41.832031 505.59375 40.777344 500.878906 39.8125 496.140625 C 38.847656 491.40625 37.972656 486.652344 37.1875 481.886719 C 36.402344 477.117188 35.710938 472.332031 35.109375 467.539062 C 34.507812 462.742188 33.996094 457.9375 33.574219 453.125 C 33.15625 448.308594 32.828125 443.488281 32.59375 438.660156 C 32.359375 433.832031 32.214844 429.003906 32.160156 424.171875 C 32.109375 419.335938 32.148438 414.503906 32.28125 409.675781 C 32.414062 404.84375 32.636719 400.015625 32.953125 395.191406 C 33.269531 390.371094 33.679688 385.554688 34.175781 380.75 C 34.675781 375.941406 35.265625 371.144531 35.949219 366.359375 C 36.628906 361.574219 37.402344 356.804688 38.265625 352.050781 C 39.128906 347.296875 40.085938 342.558594 41.128906 337.839844 C 42.171875 333.121094 43.304688 328.421875 44.527344 323.746094 C 45.75 319.070312 47.0625 314.421875 48.460938 309.792969 C 49.863281 305.167969 51.347656 300.570312 52.925781 296 C 54.5 291.433594 56.160156 286.894531 57.90625 282.390625 C 59.65625 277.882812 61.488281 273.410156 63.40625 268.976562 C 65.324219 264.539062 67.324219 260.140625 69.410156 255.78125 C 71.496094 251.421875 73.664062 247.101562 75.914062 242.824219 C 78.164062 238.546875 80.492188 234.316406 82.90625 230.125 C 85.316406 225.9375 87.804688 221.796875 90.375 217.703125 C 92.941406 213.609375 95.589844 209.5625 98.3125 205.570312 C 101.035156 201.578125 103.832031 197.636719 106.703125 193.75 C 109.578125 189.863281 112.523438 186.035156 115.539062 182.257812 C 118.558594 178.484375 121.648438 174.769531 124.808594 171.113281 C 127.96875 167.457031 131.195312 163.859375 134.492188 160.328125 C 137.789062 156.792969 141.152344 153.324219 144.582031 149.917969 L 156.417969 161.921875 C 153.144531 165.175781 149.929688 168.492188 146.78125 171.871094 C 143.628906 175.246094 140.546875 178.683594 137.527344 182.175781 C 134.507812 185.671875 131.558594 189.222656 128.671875 192.828125 C 125.789062 196.433594 122.972656 200.09375 120.230469 203.808594 C 117.484375 207.523438 114.8125 211.289062 112.210938 215.101562 C 109.609375 218.917969 107.082031 222.78125 104.628906 226.695312 C 102.175781 230.605469 99.796875 234.5625 97.492188 238.566406 C 95.1875 242.566406 92.960938 246.613281 90.8125 250.699219 C 88.664062 254.789062 86.589844 258.914062 84.597656 263.078125 C 82.605469 267.246094 80.695312 271.449219 78.863281 275.6875 C 77.027344 279.925781 75.277344 284.199219 73.609375 288.503906 C 71.9375 292.808594 70.351562 297.144531 68.847656 301.511719 C 67.339844 305.875 65.921875 310.269531 64.582031 314.6875 C 63.246094 319.109375 61.992188 323.550781 60.824219 328.019531 C 59.65625 332.488281 58.570312 336.976562 57.574219 341.484375 C 56.578125 345.996094 55.664062 350.519531 54.839844 355.0625 C 54.015625 359.609375 53.277344 364.164062 52.625 368.738281 C 51.972656 373.308594 51.410156 377.890625 50.933594 382.484375 C 50.453125 387.078125 50.066406 391.679688 49.761719 396.285156 C 49.460938 400.894531 49.246094 405.507812 49.121094 410.121094 C 48.992188 414.738281 48.953125 419.355469 49.003906 423.972656 C 49.054688 428.589844 49.191406 433.207031 49.414062 437.820312 C 49.640625 442.429688 49.953125 447.039062 50.351562 451.636719 C 50.753906 456.238281 51.242188 460.828125 51.816406 465.410156 C 52.390625 469.992188 53.050781 474.5625 53.800781 479.121094 C 54.550781 483.675781 55.386719 488.21875 56.308594 492.742188 C 57.230469 497.269531 58.238281 501.773438 59.332031 506.261719 C 60.425781 510.746094 61.601562 515.210938 62.867188 519.652344 C 64.128906 524.09375 65.476562 528.511719 66.90625 532.902344 C 68.339844 537.292969 69.855469 541.652344 71.449219 545.984375 C 73.046875 550.320312 74.726562 554.621094 76.488281 558.886719 C 78.25 563.15625 80.09375 567.390625 82.015625 571.589844 Z M 66.726562 578.660156 "/><path style=" stroke:none;fill-rule:nonzero;fill:#ffc23b;fill-opacity:1;" d="M 733.902344 800.367188 L 91.316406 800.367188 C 90.484375 800.367188 89.65625 800.328125 88.828125 800.246094 C 88.003906 800.164062 87.179688 800.042969 86.367188 799.882812 C 85.550781 799.71875 84.746094 799.515625 83.953125 799.277344 C 83.15625 799.035156 82.375 798.753906 81.609375 798.4375 C 80.839844 798.121094 80.089844 797.765625 79.359375 797.375 C 78.625 796.980469 77.914062 796.554688 77.222656 796.09375 C 76.53125 795.632812 75.867188 795.136719 75.222656 794.609375 C 74.582031 794.082031 73.964844 793.527344 73.378906 792.9375 C 72.792969 792.351562 72.234375 791.738281 71.707031 791.09375 C 71.179688 790.453125 70.6875 789.785156 70.226562 789.09375 C 69.761719 788.40625 69.335938 787.691406 68.945312 786.960938 C 68.554688 786.226562 68.199219 785.476562 67.878906 784.710938 C 67.5625 783.941406 67.285156 783.160156 67.042969 782.367188 C 66.800781 781.570312 66.597656 780.765625 66.4375 779.953125 C 66.273438 779.136719 66.152344 778.316406 66.070312 777.488281 C 65.992188 776.664062 65.949219 775.832031 65.949219 775.003906 L 65.949219 369.15625 C 65.949219 368.328125 65.992188 367.496094 66.070312 366.671875 C 66.152344 365.84375 66.273438 365.023438 66.4375 364.210938 C 66.597656 363.394531 66.800781 362.589844 67.042969 361.792969 C 67.285156 361 67.5625 360.21875 67.878906 359.449219 C 68.199219 358.683594 68.554688 357.933594 68.945312 357.199219 C 69.335938 356.46875 69.761719 355.757812 70.226562 355.066406 C 70.6875 354.375 71.179688 353.707031 71.707031 353.066406 C 72.234375 352.421875 72.792969 351.808594 73.378906 351.222656 C 73.964844 350.632812 74.582031 350.078125 75.222656 349.550781 C 75.867188 349.023438 76.53125 348.527344 77.222656 348.066406 C 77.914062 347.605469 78.625 347.179688 79.359375 346.789062 C 80.089844 346.394531 80.839844 346.039062 81.609375 345.722656 C 82.375 345.40625 83.15625 345.125 83.953125 344.882812 C 84.746094 344.644531 85.550781 344.441406 86.367188 344.28125 C 87.179688 344.117188 88.003906 343.996094 88.828125 343.914062 C 89.65625 343.832031 90.484375 343.792969 91.316406 343.792969 L 539.4375 343.792969 L 539.4375 360.703125 L 91.316406 360.703125 C 90.761719 360.703125 90.210938 360.757812 89.664062 360.863281 C 89.121094 360.972656 88.59375 361.132812 88.078125 361.347656 C 87.566406 361.558594 87.078125 361.820312 86.617188 362.128906 C 86.15625 362.4375 85.730469 362.785156 85.335938 363.179688 C 84.945312 363.570312 84.59375 364 84.285156 364.460938 C 83.976562 364.921875 83.714844 365.410156 83.503906 365.921875 C 83.292969 366.433594 83.132812 366.964844 83.023438 367.507812 C 82.914062 368.050781 82.859375 368.601562 82.859375 369.15625 L 82.859375 775.003906 C 82.859375 775.558594 82.914062 776.109375 83.023438 776.652344 C 83.132812 777.195312 83.292969 777.726562 83.503906 778.238281 C 83.714844 778.75 83.976562 779.238281 84.285156 779.699219 C 84.59375 780.160156 84.945312 780.589844 85.335938 780.980469 C 85.730469 781.375 86.15625 781.726562 86.617188 782.03125 C 87.078125 782.339844 87.566406 782.601562 88.078125 782.8125 C 88.59375 783.027344 89.121094 783.1875 89.664062 783.296875 C 90.210938 783.402344 90.761719 783.457031 91.316406 783.457031 L 733.902344 783.457031 C 734.460938 783.457031 735.007812 783.402344 735.554688 783.296875 C 736.097656 783.1875 736.625 783.027344 737.140625 782.8125 C 737.652344 782.601562 738.140625 782.339844 738.601562 782.03125 C 739.0625 781.726562 739.488281 781.375 739.882812 780.980469 C 740.273438 780.589844 740.625 780.160156 740.933594 779.699219 C 741.242188 779.238281 741.503906 778.75 741.714844 778.238281 C 741.929688 777.726562 742.089844 777.195312 742.195312 776.652344 C 742.304688 776.109375 742.359375 775.558594 742.359375 775.003906 L 742.359375 369.15625 C 742.359375 368.601562 742.304688 368.050781 742.195312 367.507812 C 742.089844 366.964844 741.929688 366.433594 741.714844 365.921875 C 741.503906 365.410156 741.242188 364.921875 740.933594 364.460938 C 740.625 364 740.273438 363.570312 739.882812 363.179688 C 739.488281 362.785156 739.0625 362.4375 738.601562 362.128906 C 738.140625 361.820312 737.652344 361.558594 737.140625 361.347656 C 736.625 361.132812 736.097656 360.972656 735.554688 360.863281 C 735.007812 360.757812 734.460938 360.703125 733.902344 360.703125 L 615.53125 360.703125 L 615.53125 343.792969 L 733.902344 343.792969 C 734.734375 343.792969 735.5625 343.832031 736.390625 343.914062 C 737.21875 343.996094 738.039062 344.117188 738.851562 344.28125 C 739.667969 344.441406 740.472656 344.644531 741.265625 344.882812 C 742.0625 345.125 742.84375 345.40625 743.609375 345.722656 C 744.378906 346.039062 745.128906 346.394531 745.859375 346.789062 C 746.59375 347.179688 747.304688 347.605469 747.996094 348.066406 C 748.6875 348.527344 749.351562 349.023438 749.996094 349.550781 C 750.636719 350.078125 751.253906 350.632812 751.839844 351.222656 C 752.425781 351.808594 752.984375 352.421875 753.511719 353.066406 C 754.039062 353.707031 754.53125 354.375 754.996094 355.066406 C 755.457031 355.757812 755.882812 356.46875 756.273438 357.199219 C 756.664062 357.933594 757.019531 358.683594 757.339844 359.449219 C 757.65625 360.21875 757.9375 361 758.175781 361.792969 C 758.417969 362.589844 758.621094 363.394531 758.78125 364.207031 C 758.945312 365.023438 759.066406 365.84375 759.148438 366.671875 C 759.230469 367.496094 759.269531 368.328125 759.269531 369.15625 L 759.269531 775.003906 C 759.269531 775.832031 759.230469 776.664062 759.148438 777.488281 C 759.066406 778.316406 758.945312 779.136719 758.78125 779.953125 C 758.621094 780.765625 758.417969 781.570312 758.175781 782.367188 C 757.9375 783.160156 757.65625 783.941406 757.339844 784.710938 C 757.019531 785.476562 756.664062 786.226562 756.273438 786.960938 C 755.882812 787.691406 755.457031 788.40625 754.996094 789.09375 C 754.53125 789.785156 754.039062 790.453125 753.511719 791.09375 C 752.984375 791.738281 752.425781 792.351562 751.839844 792.9375 C 751.253906 793.527344 750.636719 794.082031 749.996094 794.609375 C 749.351562 795.136719 748.6875 795.632812 747.996094 796.09375 C 747.304688 796.554688 746.59375 796.980469 745.859375 797.375 C 745.128906 797.765625 744.378906 798.121094 743.609375 798.4375 C 742.84375 798.753906 742.0625 799.035156 741.265625 799.277344 C 740.472656 799.515625 739.667969 799.71875 738.851562 799.882812 C 738.039062 800.042969 737.21875 800.164062 736.390625 800.246094 C 735.5625 800.328125 734.734375 800.367188 733.902344 800.367188 Z M 733.902344 800.367188 "/><path style=" stroke:none;fill-rule:nonzero;fill:#ffc23b;fill-opacity:1;" d="M 716.992188 766.546875 L 158.957031 766.546875 C 158.402344 766.546875 157.851562 766.492188 157.304688 766.386719 C 156.761719 766.277344 156.234375 766.117188 155.71875 765.902344 C 155.207031 765.691406 154.71875 765.429688 154.257812 765.121094 C 153.796875 764.816406 153.371094 764.464844 152.976562 764.070312 C 152.585938 763.679688 152.234375 763.25 151.925781 762.789062 C 151.617188 762.328125 151.355469 761.839844 151.144531 761.328125 C 150.933594 760.816406 150.773438 760.285156 150.664062 759.742188 C 150.554688 759.199219 150.5 758.648438 150.5 758.09375 L 150.5 386.066406 C 150.5 385.511719 150.554688 384.960938 150.664062 384.417969 C 150.773438 383.875 150.933594 383.34375 151.144531 382.832031 C 151.355469 382.320312 151.617188 381.832031 151.925781 381.371094 C 152.234375 380.910156 152.585938 380.480469 152.976562 380.089844 C 153.371094 379.695312 153.796875 379.347656 154.257812 379.039062 C 154.71875 378.730469 155.207031 378.46875 155.71875 378.257812 C 156.234375 378.042969 156.761719 377.882812 157.304688 377.773438 C 157.851562 377.667969 158.402344 377.613281 158.957031 377.613281 L 505.617188 377.613281 L 505.617188 394.523438 L 167.410156 394.523438 L 167.410156 749.636719 L 708.539062 749.636719 L 708.539062 394.523438 L 581.710938 394.523438 L 581.710938 377.613281 L 716.992188 377.613281 C 717.550781 377.613281 718.097656 377.667969 718.644531 377.773438 C 719.1875 377.882812 719.714844 378.042969 720.230469 378.257812 C 720.742188 378.46875 721.230469 378.730469 721.691406 379.039062 C 722.152344 379.347656 722.578125 379.695312 722.972656 380.089844 C 723.363281 380.480469 723.714844 380.910156 724.023438 381.371094 C 724.332031 381.832031 724.59375 382.320312 724.804688 382.832031 C 725.015625 383.34375 725.179688 383.875 725.285156 384.417969 C 725.394531 384.960938 725.449219 385.511719 725.449219 386.066406 L 725.449219 758.09375 C 725.449219 758.648438 725.394531 759.199219 725.285156 759.742188 C 725.179688 760.285156 725.015625 760.816406 724.804688 761.328125 C 724.59375 761.839844 724.332031 762.328125 724.023438 762.789062 C 723.714844 763.25 723.363281 763.679688 722.972656 764.070312 C 722.578125 764.464844 722.152344 764.816406 721.691406 765.121094 C 721.230469 765.429688 720.742188 765.691406 720.230469 765.902344 C 719.714844 766.117188 719.1875 766.277344 718.644531 766.386719 C 718.097656 766.492188 717.550781 766.546875 716.992188 766.546875 Z M 716.992188 766.546875 "/><path style=" stroke:none;fill-rule:nonzero;fill:#ffc23b;fill-opacity:1;" d="M 116.679688 622.8125 C 115.019531 622.8125 113.363281 622.730469 111.707031 622.566406 C 110.054688 622.402344 108.414062 622.160156 106.785156 621.835938 C 105.152344 621.511719 103.542969 621.109375 101.953125 620.625 C 100.363281 620.144531 98.800781 619.585938 97.265625 618.949219 C 95.730469 618.3125 94.230469 617.605469 92.765625 616.820312 C 91.300781 616.039062 89.878906 615.183594 88.496094 614.261719 C 87.113281 613.339844 85.78125 612.347656 84.496094 611.296875 C 83.214844 610.242188 81.984375 609.128906 80.808594 607.953125 C 79.632812 606.777344 78.519531 605.546875 77.464844 604.261719 C 76.410156 602.980469 75.421875 601.644531 74.5 600.265625 C 73.578125 598.882812 72.722656 597.460938 71.941406 595.996094 C 71.15625 594.527344 70.449219 593.027344 69.8125 591.492188 C 69.175781 589.960938 68.617188 588.398438 68.132812 586.804688 C 67.652344 585.214844 67.25 583.605469 66.925781 581.976562 C 66.601562 580.347656 66.355469 578.707031 66.195312 577.050781 C 66.03125 575.398438 65.949219 573.742188 65.949219 572.082031 C 65.949219 570.417969 66.03125 568.761719 66.195312 567.109375 C 66.355469 565.453125 66.601562 563.8125 66.925781 562.183594 C 67.25 560.554688 67.652344 558.945312 68.132812 557.355469 C 68.617188 555.765625 69.175781 554.203125 69.8125 552.667969 C 70.449219 551.132812 71.15625 549.632812 71.941406 548.164062 C 72.722656 546.699219 73.578125 545.277344 74.5 543.894531 C 75.421875 542.515625 76.410156 541.179688 77.464844 539.898438 C 78.519531 538.613281 79.632812 537.382812 80.808594 536.207031 C 81.984375 535.035156 83.214844 533.917969 84.496094 532.863281 C 85.78125 531.8125 87.113281 530.820312 88.496094 529.898438 C 89.878906 528.976562 91.300781 528.121094 92.765625 527.339844 C 94.230469 526.554688 95.730469 525.847656 97.265625 525.210938 C 98.800781 524.574219 100.363281 524.015625 101.953125 523.535156 C 103.542969 523.050781 105.152344 522.648438 106.785156 522.324219 C 108.414062 522 110.054688 521.757812 111.707031 521.59375 C 113.363281 521.429688 115.019531 521.347656 116.679688 521.347656 C 118.34375 521.347656 120 521.429688 121.652344 521.59375 C 123.304688 521.757812 124.949219 522 126.578125 522.324219 C 128.207031 522.648438 129.816406 523.050781 131.40625 523.535156 C 132.996094 524.015625 134.558594 524.574219 136.09375 525.210938 C 137.628906 525.847656 139.128906 526.554688 140.59375 527.339844 C 142.058594 528.121094 143.484375 528.976562 144.863281 529.898438 C 146.246094 530.820312 147.578125 531.8125 148.863281 532.863281 C 150.148438 533.917969 151.378906 535.035156 152.550781 536.207031 C 153.726562 537.382812 154.84375 538.613281 155.894531 539.898438 C 156.949219 541.179688 157.9375 542.515625 158.863281 543.894531 C 159.785156 545.277344 160.636719 546.699219 161.421875 548.164062 C 162.203125 549.632812 162.914062 551.132812 163.550781 552.667969 C 164.183594 554.203125 164.746094 555.765625 165.226562 557.355469 C 165.710938 558.945312 166.113281 560.554688 166.4375 562.183594 C 166.761719 563.8125 167.003906 565.453125 167.167969 567.109375 C 167.328125 568.761719 167.410156 570.417969 167.410156 572.082031 C 167.410156 573.742188 167.328125 575.398438 167.164062 577.050781 C 167 578.703125 166.753906 580.34375 166.429688 581.972656 C 166.101562 583.601562 165.699219 585.210938 165.214844 586.800781 C 164.730469 588.390625 164.171875 589.953125 163.535156 591.484375 C 162.898438 593.019531 162.191406 594.519531 161.40625 595.984375 C 160.621094 597.449219 159.769531 598.871094 158.847656 600.253906 C 157.921875 601.632812 156.933594 602.964844 155.878906 604.25 C 154.828125 605.535156 153.710938 606.761719 152.539062 607.9375 C 151.363281 609.113281 150.132812 610.226562 148.851562 611.28125 C 147.566406 612.332031 146.234375 613.324219 144.851562 614.246094 C 143.472656 615.167969 142.050781 616.023438 140.585938 616.804688 C 139.121094 617.589844 137.621094 618.300781 136.085938 618.9375 C 134.550781 619.570312 132.992188 620.132812 131.402344 620.613281 C 129.8125 621.097656 128.203125 621.503906 126.574219 621.828125 C 124.945312 622.152344 123.304688 622.398438 121.652344 622.5625 C 120 622.726562 118.339844 622.808594 116.679688 622.8125 Z M 116.679688 538.261719 C 115.574219 538.261719 114.46875 538.3125 113.367188 538.421875 C 112.261719 538.53125 111.167969 538.695312 110.082031 538.910156 C 108.996094 539.125 107.921875 539.394531 106.863281 539.714844 C 105.804688 540.039062 104.761719 540.410156 103.738281 540.835938 C 102.714844 541.257812 101.714844 541.730469 100.738281 542.253906 C 99.761719 542.777344 98.8125 543.34375 97.890625 543.960938 C 96.96875 544.574219 96.082031 545.234375 95.226562 545.9375 C 94.367188 546.640625 93.550781 547.382812 92.765625 548.164062 C 91.984375 548.949219 91.238281 549.769531 90.535156 550.625 C 89.835938 551.480469 89.175781 552.371094 88.558594 553.289062 C 87.945312 554.210938 87.375 555.160156 86.855469 556.136719 C 86.332031 557.113281 85.859375 558.113281 85.433594 559.136719 C 85.011719 560.160156 84.636719 561.203125 84.316406 562.261719 C 83.996094 563.324219 83.726562 564.394531 83.511719 565.480469 C 83.292969 566.570312 83.132812 567.664062 83.023438 568.765625 C 82.914062 569.867188 82.859375 570.972656 82.859375 572.082031 C 82.859375 573.1875 82.914062 574.292969 83.023438 575.394531 C 83.132812 576.496094 83.292969 577.59375 83.511719 578.679688 C 83.726562 579.765625 83.996094 580.835938 84.316406 581.898438 C 84.636719 582.957031 85.011719 584 85.433594 585.023438 C 85.859375 586.046875 86.332031 587.046875 86.855469 588.023438 C 87.375 589 87.945312 589.949219 88.558594 590.871094 C 89.175781 591.789062 89.835938 592.679688 90.535156 593.535156 C 91.238281 594.390625 91.984375 595.210938 92.765625 595.996094 C 93.550781 596.777344 94.367188 597.519531 95.226562 598.222656 C 96.082031 598.925781 96.96875 599.585938 97.890625 600.199219 C 98.8125 600.816406 99.761719 601.386719 100.738281 601.90625 C 101.714844 602.429688 102.714844 602.902344 103.738281 603.328125 C 104.761719 603.75 105.804688 604.121094 106.863281 604.445312 C 107.921875 604.765625 108.996094 605.035156 110.082031 605.25 C 111.167969 605.46875 112.261719 605.628906 113.367188 605.738281 C 114.46875 605.847656 115.574219 605.902344 116.679688 605.902344 C 117.789062 605.902344 118.894531 605.847656 119.996094 605.738281 C 121.097656 605.628906 122.191406 605.46875 123.277344 605.25 C 124.363281 605.035156 125.4375 604.765625 126.5 604.445312 C 127.558594 604.121094 128.601562 603.75 129.625 603.328125 C 130.644531 602.902344 131.648438 602.429688 132.625 601.90625 C 133.601562 601.386719 134.550781 600.816406 135.46875 600.199219 C 136.390625 599.585938 137.28125 598.925781 138.136719 598.222656 C 138.992188 597.519531 139.8125 596.777344 140.59375 595.996094 C 141.378906 595.210938 142.121094 594.390625 142.824219 593.535156 C 143.527344 592.679688 144.1875 591.789062 144.800781 590.871094 C 145.417969 589.949219 145.984375 589 146.507812 588.023438 C 147.03125 587.046875 147.503906 586.046875 147.925781 585.023438 C 148.351562 584 148.722656 582.957031 149.042969 581.898438 C 149.367188 580.835938 149.636719 579.765625 149.851562 578.679688 C 150.066406 577.59375 150.230469 576.496094 150.339844 575.394531 C 150.445312 574.292969 150.5 573.1875 150.5 572.082031 C 150.5 570.972656 150.445312 569.867188 150.339844 568.765625 C 150.230469 567.664062 150.066406 566.570312 149.851562 565.480469 C 149.636719 564.394531 149.367188 563.324219 149.042969 562.261719 C 148.722656 561.203125 148.351562 560.160156 147.925781 559.136719 C 147.503906 558.113281 147.03125 557.113281 146.507812 556.136719 C 145.984375 555.160156 145.417969 554.210938 144.800781 553.289062 C 144.1875 552.371094 143.527344 551.480469 142.824219 550.625 C 142.121094 549.769531 141.378906 548.949219 140.59375 548.164062 C 139.8125 547.382812 138.992188 546.640625 138.136719 545.9375 C 137.28125 545.234375 136.390625 544.574219 135.46875 543.960938 C 134.550781 543.34375 133.601562 542.777344 132.625 542.253906 C 131.648438 541.730469 130.644531 541.257812 129.625 540.835938 C 128.601562 540.410156 127.558594 540.039062 126.5 539.714844 C 125.4375 539.394531 124.363281 539.125 123.277344 538.910156 C 122.191406 538.695312 121.097656 538.53125 119.996094 538.421875 C 118.894531 538.3125 117.789062 538.261719 116.679688 538.261719 Z M 116.679688 538.261719 "/><path style=" stroke:none;fill-rule:nonzero;fill:#ffc23b;fill-opacity:1;" d="M 74.40625 402.976562 L 158.957031 402.976562 L 158.957031 419.886719 L 74.40625 419.886719 Z M 74.40625 402.976562 "/><path style=" stroke:none;fill-rule:nonzero;fill:#ffc23b;fill-opacity:1;" d="M 74.40625 487.527344 L 158.957031 487.527344 L 158.957031 504.4375 L 74.40625 504.4375 Z M 74.40625 487.527344 "/><path style=" stroke:none;fill-rule:nonzero;fill:#ffc23b;fill-opacity:1;" d="M 74.40625 639.722656 L 158.957031 639.722656 L 158.957031 656.632812 L 74.40625 656.632812 Z M 74.40625 639.722656 "/><path style=" stroke:none;fill-rule:nonzero;fill:#ffc23b;fill-opacity:1;" d="M 74.40625 724.273438 L 158.957031 724.273438 L 158.957031 741.183594 L 74.40625 741.183594 Z M 74.40625 724.273438 "/><path style=" stroke:none;fill-rule:nonzero;fill:#ffc23b;fill-opacity:1;" d="M 74.40625 445.253906 L 158.957031 445.253906 L 158.957031 462.164062 L 74.40625 462.164062 Z M 74.40625 445.253906 "/><path style=" stroke:none;fill-rule:nonzero;fill:#ffc23b;fill-opacity:1;" d="M 74.40625 681.996094 L 158.957031 681.996094 L 158.957031 698.90625 L 74.40625 698.90625 Z M 74.40625 681.996094 "/><path style=" stroke:none;fill-rule:nonzero;fill:#ffc23b;fill-opacity:1;" d="M 108.226562 411.433594 L 125.136719 411.433594 L 125.136719 495.984375 L 108.226562 495.984375 Z M 108.226562 411.433594 "/><path style=" stroke:none;fill-rule:nonzero;fill:#ffc23b;fill-opacity:1;" d="M 108.226562 648.175781 L 125.136719 648.175781 L 125.136719 732.726562 L 108.226562 732.726562 Z M 108.226562 648.175781 "/><path style=" stroke:none;fill-rule:nonzero;fill:#ffc23b;fill-opacity:1;" d="M 468.667969 505.453125 C 468.011719 505.453125 467.363281 505.375 466.722656 505.226562 C 466.023438 505.058594 465.355469 504.808594 464.71875 504.472656 C 464.082031 504.136719 463.5 503.726562 462.96875 503.242188 C 462.4375 502.757812 461.976562 502.214844 461.582031 501.613281 C 461.191406 501.011719 460.878906 500.367188 460.652344 499.6875 L 455.28125 483.621094 L 446.082031 474.433594 L 430.019531 469.054688 C 429.679688 468.941406 429.347656 468.804688 429.023438 468.648438 C 428.703125 468.492188 428.390625 468.316406 428.089844 468.121094 C 427.789062 467.925781 427.503906 467.710938 427.230469 467.480469 C 426.957031 467.246094 426.699219 467 426.460938 466.734375 C 426.21875 466.46875 425.996094 466.1875 425.789062 465.894531 C 425.582031 465.601562 425.394531 465.296875 425.230469 464.980469 C 425.0625 464.664062 424.914062 464.335938 424.789062 464 C 424.664062 463.664062 424.5625 463.324219 424.476562 462.972656 C 424.394531 462.625 424.335938 462.273438 424.300781 461.914062 C 424.261719 461.558594 424.25 461.203125 424.257812 460.84375 C 424.265625 460.484375 424.296875 460.128906 424.347656 459.773438 C 424.402344 459.417969 424.480469 459.070312 424.578125 458.726562 C 424.675781 458.378906 424.792969 458.042969 424.9375 457.714844 C 425.078125 457.382812 425.238281 457.066406 425.417969 456.757812 C 425.601562 456.445312 425.800781 456.152344 426.019531 455.867188 C 426.238281 455.582031 426.476562 455.316406 426.730469 455.0625 L 713.695312 168.09375 C 714.089844 167.703125 714.515625 167.351562 714.976562 167.042969 C 715.4375 166.734375 715.925781 166.476562 716.4375 166.261719 C 716.953125 166.050781 717.480469 165.890625 718.023438 165.78125 C 718.570312 165.671875 719.117188 165.621094 719.675781 165.621094 C 720.230469 165.621094 720.777344 165.671875 721.324219 165.78125 C 721.867188 165.890625 722.394531 166.050781 722.910156 166.261719 C 723.421875 166.476562 723.910156 166.734375 724.371094 167.042969 C 724.832031 167.351562 725.257812 167.703125 725.652344 168.09375 L 761.585938 204.027344 C 761.976562 204.421875 762.328125 204.847656 762.636719 205.308594 C 762.945312 205.773438 763.207031 206.257812 763.417969 206.773438 C 763.628906 207.285156 763.789062 207.8125 763.898438 208.359375 C 764.007812 208.902344 764.0625 209.453125 764.0625 210.007812 C 764.0625 210.5625 764.007812 211.113281 763.898438 211.65625 C 763.789062 212.199219 763.628906 212.730469 763.417969 213.242188 C 763.207031 213.753906 762.945312 214.242188 762.636719 214.703125 C 762.328125 215.164062 761.976562 215.59375 761.585938 215.984375 L 474.644531 502.984375 C 473.851562 503.777344 472.9375 504.386719 471.902344 504.8125 C 470.867188 505.242188 469.789062 505.453125 468.667969 505.453125 Z M 448.375 457.386719 L 453.335938 459.078125 C 454.597656 459.496094 455.695312 460.175781 456.636719 461.117188 L 468.640625 473.121094 C 469.578125 474.0625 470.257812 475.160156 470.679688 476.417969 L 472.371094 481.390625 L 743.679688 210.03125 L 719.699219 186.054688 Z M 448.375 457.386719 "/><path style=" stroke:none;fill-rule:nonzero;fill:#ffc23b;fill-opacity:1;" d="M 408.804688 529.382812 C 408.460938 529.382812 408.117188 529.359375 407.777344 529.320312 C 407.433594 529.277344 407.097656 529.214844 406.761719 529.132812 C 406.429688 529.050781 406.101562 528.945312 405.78125 528.824219 C 405.457031 528.699219 405.144531 528.558594 404.839844 528.398438 C 404.539062 528.234375 404.246094 528.058594 403.960938 527.859375 C 403.679688 527.664062 403.410156 527.449219 403.15625 527.21875 C 402.898438 526.988281 402.65625 526.746094 402.429688 526.484375 C 402.203125 526.226562 401.996094 525.953125 401.800781 525.667969 C 401.609375 525.386719 401.433594 525.089844 401.277344 524.78125 C 401.121094 524.476562 400.984375 524.160156 400.863281 523.839844 C 400.746094 523.515625 400.648438 523.1875 400.570312 522.851562 C 400.492188 522.515625 400.433594 522.179688 400.394531 521.835938 C 400.359375 521.492188 400.34375 521.152344 400.347656 520.804688 C 400.351562 520.460938 400.378906 520.121094 400.425781 519.777344 C 400.472656 519.4375 400.539062 519.101562 400.625 518.769531 C 400.714844 518.4375 400.824219 518.109375 400.949219 517.789062 L 424.878906 457.929688 L 440.585938 464.203125 L 423.972656 505.757812 L 465.53125 489.144531 L 471.796875 504.855469 L 411.933594 528.78125 C 410.929688 529.183594 409.886719 529.382812 408.804688 529.382812 Z M 408.804688 529.382812 "/><path style=" stroke:none;fill-rule:nonzero;fill:#ffc23b;fill-opacity:1;" d="M 677.875 216.019531 L 689.832031 204.0625 L 725.679688 239.90625 L 713.722656 251.863281 Z M 677.875 216.019531 "/><path style=" stroke:none;fill-rule:nonzero;fill:#ffc23b;fill-opacity:1;" d="M 659.945312 233.9375 L 671.90625 221.980469 L 707.757812 257.832031 L 695.800781 269.789062 Z M 659.945312 233.9375 "/><path style=" stroke:none;fill-rule:nonzero;fill:#ffc23b;fill-opacity:1;" d="M 302.691406 242.332031 L 150.5 242.332031 C 149.945312 242.332031 149.394531 242.277344 148.851562 242.167969 C 148.308594 242.058594 147.777344 241.898438 147.265625 241.6875 C 146.753906 241.476562 146.265625 241.214844 145.804688 240.90625 C 145.34375 240.597656 144.914062 240.246094 144.523438 239.855469 C 144.128906 239.460938 143.777344 239.035156 143.472656 238.574219 C 143.164062 238.113281 142.902344 237.625 142.691406 237.109375 C 142.476562 236.597656 142.316406 236.070312 142.207031 235.523438 C 142.101562 234.980469 142.046875 234.429688 142.046875 233.875 L 142.046875 81.683594 C 142.046875 81.128906 142.101562 80.578125 142.207031 80.035156 C 142.316406 79.488281 142.476562 78.960938 142.691406 78.449219 C 142.902344 77.933594 143.164062 77.449219 143.472656 76.984375 C 143.777344 76.523438 144.128906 76.097656 144.523438 75.703125 C 144.914062 75.3125 145.34375 74.960938 145.804688 74.652344 C 146.265625 74.34375 146.753906 74.085938 147.265625 73.871094 C 147.777344 73.660156 148.308594 73.5 148.851562 73.390625 C 149.394531 73.28125 149.945312 73.226562 150.5 73.226562 L 302.691406 73.226562 C 303.25 73.226562 303.796875 73.28125 304.34375 73.390625 C 304.886719 73.5 305.414062 73.660156 305.929688 73.871094 C 306.441406 74.085938 306.929688 74.34375 307.390625 74.652344 C 307.851562 74.960938 308.277344 75.3125 308.671875 75.703125 C 309.0625 76.097656 309.414062 76.523438 309.722656 76.984375 C 310.03125 77.449219 310.292969 77.933594 310.503906 78.449219 C 310.71875 78.960938 310.878906 79.488281 310.984375 80.035156 C 311.09375 80.578125 311.148438 81.128906 311.148438 81.683594 L 311.148438 233.875 C 311.148438 234.429688 311.09375 234.980469 310.984375 235.523438 C 310.878906 236.070312 310.71875 236.597656 310.503906 237.109375 C 310.292969 237.625 310.03125 238.113281 309.722656 238.574219 C 309.414062 239.035156 309.0625 239.460938 308.671875 239.855469 C 308.277344 240.246094 307.851562 240.597656 307.390625 240.90625 C 306.929688 241.214844 306.441406 241.476562 305.929688 241.6875 C 305.414062 241.898438 304.886719 242.058594 304.34375 242.167969 C 303.796875 242.277344 303.25 242.332031 302.691406 242.332031 Z M 158.957031 225.421875 L 294.238281 225.421875 L 294.238281 90.140625 L 158.957031 90.140625 Z M 158.957031 225.421875 "/><path style=" stroke:none;fill-rule:nonzero;fill:#ffc23b;fill-opacity:1;" d="M 302.691406 318.425781 C 301.308594 318.425781 299.925781 318.390625 298.546875 318.320312 C 297.164062 318.25 295.785156 318.148438 294.410156 318.011719 C 293.03125 317.875 291.660156 317.703125 290.292969 317.5 C 288.921875 317.296875 287.5625 317.058594 286.203125 316.785156 C 284.847656 316.515625 283.5 316.210938 282.15625 315.875 C 280.816406 315.539062 279.484375 315.167969 278.160156 314.765625 C 276.835938 314.363281 275.523438 313.929688 274.222656 313.460938 C 272.917969 312.996094 271.628906 312.496094 270.351562 311.964844 C 269.074219 311.4375 267.808594 310.875 266.558594 310.28125 C 265.308594 309.691406 264.074219 309.066406 262.855469 308.414062 C 261.632812 307.761719 260.429688 307.082031 259.246094 306.371094 C 258.058594 305.65625 256.890625 304.917969 255.742188 304.148438 C 254.589844 303.378906 253.460938 302.582031 252.347656 301.757812 C 251.238281 300.933594 250.148438 300.082031 249.078125 299.207031 C 248.011719 298.328125 246.964844 297.425781 245.9375 296.496094 C 244.914062 295.566406 243.910156 294.613281 242.933594 293.636719 C 241.957031 292.65625 241 291.65625 240.074219 290.628906 C 239.144531 289.605469 238.242188 288.558594 237.363281 287.488281 C 236.484375 286.421875 235.632812 285.332031 234.808594 284.21875 C 233.984375 283.109375 233.1875 281.976562 232.421875 280.828125 C 231.652344 279.679688 230.910156 278.507812 230.199219 277.324219 C 229.488281 276.136719 228.804688 274.933594 228.152344 273.714844 C 227.5 272.496094 226.878906 271.257812 226.285156 270.007812 C 225.695312 268.757812 225.132812 267.496094 224.601562 266.21875 C 224.074219 264.941406 223.574219 263.648438 223.109375 262.347656 C 222.640625 261.046875 222.207031 259.734375 221.804688 258.410156 C 221.402344 257.085938 221.03125 255.753906 220.695312 254.410156 C 220.355469 253.070312 220.054688 251.722656 219.78125 250.363281 C 219.511719 249.007812 219.273438 247.644531 219.070312 246.277344 C 218.863281 244.910156 218.695312 243.535156 218.558594 242.160156 C 218.421875 240.785156 218.316406 239.40625 218.25 238.023438 C 218.179688 236.640625 218.144531 235.257812 218.140625 233.875 L 235.050781 233.875 C 235.050781 234.984375 235.078125 236.089844 235.132812 237.195312 C 235.1875 238.300781 235.269531 239.402344 235.378906 240.503906 C 235.488281 241.605469 235.621094 242.707031 235.785156 243.800781 C 235.945312 244.894531 236.136719 245.984375 236.351562 247.070312 C 236.566406 248.15625 236.808594 249.238281 237.078125 250.3125 C 237.347656 251.386719 237.644531 252.453125 237.964844 253.511719 C 238.285156 254.570312 238.632812 255.621094 239.007812 256.664062 C 239.378906 257.707031 239.777344 258.738281 240.199219 259.761719 C 240.625 260.785156 241.074219 261.796875 241.546875 262.796875 C 242.019531 263.796875 242.515625 264.785156 243.039062 265.761719 C 243.5625 266.738281 244.105469 267.699219 244.675781 268.648438 C 245.246094 269.597656 245.835938 270.535156 246.453125 271.453125 C 247.066406 272.375 247.703125 273.28125 248.363281 274.167969 C 249.023438 275.058594 249.703125 275.929688 250.40625 276.785156 C 251.109375 277.640625 251.832031 278.480469 252.574219 279.300781 C 253.316406 280.121094 254.082031 280.921875 254.863281 281.703125 C 255.648438 282.488281 256.449219 283.25 257.269531 283.996094 C 258.089844 284.738281 258.925781 285.460938 259.78125 286.164062 C 260.636719 286.863281 261.511719 287.546875 262.398438 288.207031 C 263.289062 288.863281 264.191406 289.503906 265.113281 290.117188 C 266.035156 290.730469 266.96875 291.324219 267.917969 291.894531 C 268.867188 292.460938 269.832031 293.007812 270.808594 293.53125 C 271.785156 294.050781 272.773438 294.550781 273.773438 295.023438 C 274.773438 295.496094 275.785156 295.945312 276.808594 296.367188 C 277.832031 296.792969 278.863281 297.191406 279.90625 297.5625 C 280.949219 297.933594 282 298.28125 283.058594 298.605469 C 284.117188 298.925781 285.183594 299.21875 286.257812 299.488281 C 287.332031 299.757812 288.410156 300 289.496094 300.21875 C 290.582031 300.433594 291.671875 300.621094 292.769531 300.785156 C 293.863281 300.945312 294.960938 301.082031 296.0625 301.191406 C 297.164062 301.300781 298.269531 301.378906 299.375 301.433594 C 300.480469 301.488281 301.585938 301.515625 302.691406 301.515625 C 303.800781 301.515625 304.90625 301.488281 306.011719 301.433594 C 307.117188 301.378906 308.222656 301.300781 309.324219 301.191406 C 310.425781 301.082031 311.523438 300.945312 312.617188 300.785156 C 313.714844 300.621094 314.804688 300.433594 315.890625 300.21875 C 316.976562 300 318.054688 299.757812 319.128906 299.488281 C 320.203125 299.21875 321.269531 298.925781 322.328125 298.605469 C 323.386719 298.28125 324.4375 297.933594 325.480469 297.5625 C 326.523438 297.191406 327.554688 296.792969 328.578125 296.367188 C 329.601562 295.945312 330.613281 295.496094 331.613281 295.023438 C 332.613281 294.550781 333.601562 294.050781 334.578125 293.53125 C 335.554688 293.007812 336.519531 292.460938 337.46875 291.894531 C 338.417969 291.324219 339.351562 290.730469 340.273438 290.117188 C 341.191406 289.503906 342.097656 288.863281 342.988281 288.207031 C 343.875 287.546875 344.75 286.863281 345.605469 286.164062 C 346.460938 285.460938 347.296875 284.738281 348.117188 283.996094 C 348.9375 283.25 349.738281 282.488281 350.523438 281.703125 C 351.304688 280.921875 352.066406 280.121094 352.8125 279.300781 C 353.554688 278.480469 354.277344 277.640625 354.980469 276.785156 C 355.683594 275.929688 356.363281 275.058594 357.023438 274.167969 C 357.683594 273.28125 358.320312 272.375 358.933594 271.453125 C 359.550781 270.535156 360.140625 269.597656 360.710938 268.648438 C 361.28125 267.699219 361.824219 266.738281 362.347656 265.761719 C 362.867188 264.785156 363.367188 263.796875 363.839844 262.796875 C 364.3125 261.796875 364.761719 260.785156 365.183594 259.761719 C 365.609375 258.738281 366.007812 257.707031 366.378906 256.664062 C 366.753906 255.621094 367.101562 254.570312 367.421875 253.511719 C 367.742188 252.453125 368.039062 251.386719 368.308594 250.3125 C 368.574219 249.238281 368.816406 248.15625 369.035156 247.070312 C 369.25 245.984375 369.4375 244.894531 369.601562 243.800781 C 369.765625 242.707031 369.898438 241.605469 370.007812 240.503906 C 370.117188 239.402344 370.199219 238.300781 370.253906 237.195312 C 370.308594 236.089844 370.335938 234.984375 370.335938 233.875 C 370.335938 232.769531 370.308594 231.664062 370.253906 230.558594 C 370.199219 229.449219 370.117188 228.347656 370.007812 227.246094 C 369.898438 226.144531 369.765625 225.046875 369.601562 223.949219 C 369.4375 222.855469 369.25 221.765625 369.035156 220.679688 C 368.816406 219.59375 368.574219 218.515625 368.308594 217.441406 C 368.039062 216.367188 367.742188 215.300781 367.421875 214.242188 C 367.101562 213.179688 366.753906 212.128906 366.378906 211.089844 C 366.007812 210.046875 365.609375 209.011719 365.183594 207.992188 C 364.761719 206.96875 364.3125 205.957031 363.839844 204.957031 C 363.367188 203.953125 362.867188 202.964844 362.347656 201.988281 C 361.824219 201.011719 361.28125 200.050781 360.710938 199.101562 C 360.140625 198.152344 359.550781 197.21875 358.933594 196.296875 C 358.320312 195.375 357.683594 194.472656 357.023438 193.582031 C 356.363281 192.691406 355.683594 191.820312 354.980469 190.964844 C 354.277344 190.109375 353.554688 189.269531 352.8125 188.449219 C 352.066406 187.628906 351.304688 186.828125 350.523438 186.046875 C 349.738281 185.261719 348.9375 184.5 348.117188 183.757812 C 347.296875 183.011719 346.460938 182.289062 345.605469 181.589844 C 344.75 180.886719 343.875 180.207031 342.988281 179.546875 C 342.097656 178.886719 341.191406 178.25 340.273438 177.632812 C 339.351562 177.019531 338.417969 176.425781 337.46875 175.859375 C 336.519531 175.289062 335.554688 174.742188 334.578125 174.222656 C 333.601562 173.699219 332.613281 173.203125 331.613281 172.730469 C 330.613281 172.253906 329.601562 171.808594 328.578125 171.382812 C 327.554688 170.960938 326.523438 170.5625 325.480469 170.1875 C 324.4375 169.816406 323.386719 169.46875 322.328125 169.148438 C 321.269531 168.824219 320.203125 168.53125 319.128906 168.261719 C 318.054688 167.992188 316.976562 167.75 315.890625 167.535156 C 314.804688 167.320312 313.714844 167.128906 312.617188 166.96875 C 311.523438 166.804688 310.425781 166.667969 309.324219 166.558594 C 308.222656 166.453125 307.117188 166.371094 306.011719 166.316406 C 304.90625 166.261719 303.800781 166.234375 302.691406 166.234375 L 302.691406 149.324219 C 304.078125 149.324219 305.460938 149.359375 306.839844 149.429688 C 308.222656 149.496094 309.601562 149.597656 310.980469 149.734375 C 312.355469 149.871094 313.726562 150.039062 315.097656 150.242188 C 316.464844 150.445312 317.828125 150.683594 319.183594 150.953125 C 320.539062 151.222656 321.890625 151.527344 323.230469 151.863281 C 324.574219 152.199219 325.90625 152.570312 327.230469 152.972656 C 328.554688 153.375 329.867188 153.808594 331.167969 154.273438 C 332.472656 154.742188 333.761719 155.238281 335.039062 155.769531 C 336.320312 156.296875 337.582031 156.859375 338.832031 157.453125 C 340.082031 158.042969 341.320312 158.664062 342.539062 159.316406 C 343.757812 159.96875 344.960938 160.652344 346.148438 161.363281 C 347.335938 162.074219 348.503906 162.816406 349.652344 163.585938 C 350.804688 164.351562 351.933594 165.148438 353.042969 165.972656 C 354.15625 166.796875 355.246094 167.648438 356.316406 168.527344 C 357.382812 169.40625 358.429688 170.308594 359.457031 171.238281 C 360.480469 172.167969 361.484375 173.121094 362.460938 174.097656 C 363.4375 175.078125 364.390625 176.078125 365.320312 177.105469 C 366.25 178.128906 367.152344 179.175781 368.03125 180.246094 C 368.910156 181.316406 369.757812 182.40625 370.582031 183.519531 C 371.40625 184.628906 372.203125 185.761719 372.972656 186.910156 C 373.738281 188.0625 374.480469 189.230469 375.191406 190.417969 C 375.902344 191.601562 376.582031 192.804688 377.234375 194.027344 C 377.886719 195.246094 378.507812 196.480469 379.101562 197.734375 C 379.691406 198.984375 380.253906 200.246094 380.78125 201.527344 C 381.3125 202.804688 381.808594 204.09375 382.273438 205.398438 C 382.742188 206.699219 383.175781 208.011719 383.574219 209.335938 C 383.976562 210.660156 384.347656 211.992188 384.683594 213.335938 C 385.019531 214.679688 385.320312 216.027344 385.589844 217.382812 C 385.859375 218.742188 386.097656 220.105469 386.300781 221.472656 C 386.503906 222.839844 386.671875 224.214844 386.808594 225.589844 C 386.945312 226.96875 387.046875 228.347656 387.113281 229.726562 C 387.179688 231.109375 387.214844 232.492188 387.214844 233.875 C 387.214844 235.257812 387.179688 236.640625 387.113281 238.023438 C 387.046875 239.40625 386.945312 240.785156 386.808594 242.160156 C 386.671875 243.539062 386.503906 244.910156 386.300781 246.277344 C 386.097656 247.648438 385.859375 249.011719 385.589844 250.367188 C 385.320312 251.722656 385.019531 253.074219 384.683594 254.414062 C 384.347656 255.757812 383.976562 257.089844 383.574219 258.414062 C 383.175781 259.738281 382.742188 261.050781 382.273438 262.355469 C 381.808594 263.65625 381.3125 264.945312 380.78125 266.226562 C 380.253906 267.503906 379.691406 268.769531 379.101562 270.019531 C 378.507812 271.269531 377.886719 272.503906 377.234375 273.726562 C 376.582031 274.945312 375.902344 276.148438 375.191406 277.335938 C 374.480469 278.523438 373.738281 279.691406 372.972656 280.839844 C 372.203125 281.992188 371.40625 283.121094 370.582031 284.234375 C 369.757812 285.34375 368.910156 286.433594 368.03125 287.503906 C 367.152344 288.574219 366.25 289.621094 365.320312 290.648438 C 364.390625 291.671875 363.4375 292.671875 362.460938 293.652344 C 361.484375 294.628906 360.480469 295.585938 359.457031 296.511719 C 358.429688 297.441406 357.382812 298.347656 356.316406 299.222656 C 355.246094 300.101562 354.15625 300.953125 353.042969 301.777344 C 351.933594 302.601562 350.804688 303.398438 349.652344 304.167969 C 348.503906 304.9375 347.335938 305.675781 346.148438 306.386719 C 344.960938 307.097656 343.757812 307.78125 342.539062 308.433594 C 341.320312 309.085938 340.082031 309.707031 338.832031 310.300781 C 337.582031 310.890625 336.320312 311.453125 335.039062 311.980469 C 333.761719 312.511719 332.472656 313.011719 331.167969 313.476562 C 329.867188 313.941406 328.554688 314.378906 327.230469 314.777344 C 325.90625 315.179688 324.574219 315.550781 323.230469 315.886719 C 321.890625 316.222656 320.539062 316.527344 319.183594 316.796875 C 317.828125 317.066406 316.464844 317.304688 315.097656 317.507812 C 313.726562 317.710938 312.355469 317.882812 310.980469 318.015625 C 309.601562 318.152344 308.222656 318.253906 306.839844 318.324219 C 305.460938 318.390625 304.078125 318.425781 302.691406 318.425781 Z M 302.691406 318.425781 "/><path style=" stroke:none;fill-rule:nonzero;fill:#ffc23b;fill-opacity:1;" d="M 144.523438 87.660156 L 156.480469 75.703125 L 308.671875 227.898438 L 296.714844 239.855469 Z M 144.523438 87.660156 "/><path style=" stroke:none;fill-rule:nonzero;fill:#ffc23b;fill-opacity:1;" d="M 195.253906 87.664062 L 207.210938 75.707031 L 308.675781 177.171875 L 296.71875 189.128906 Z M 195.253906 87.664062 "/><path style=" stroke:none;fill-rule:nonzero;fill:#ffc23b;fill-opacity:1;" d="M 144.523438 138.394531 L 156.480469 126.4375 L 257.945312 227.902344 L 245.988281 239.859375 Z M 144.523438 138.394531 "/><path style=" stroke:none;fill-rule:nonzero;fill:#ffc23b;fill-opacity:1;" d="M 245.980469 87.660156 L 257.9375 75.703125 L 308.667969 126.433594 L 296.710938 138.390625 Z M 245.980469 87.660156 "/><path style=" stroke:none;fill-rule:nonzero;fill:#ffc23b;fill-opacity:1;" d="M 144.519531 189.121094 L 156.476562 177.164062 L 207.207031 227.894531 L 195.25 239.851562 Z M 144.519531 189.121094 "/><path style=" stroke:none;fill-rule:nonzero;fill:#ffc23b;fill-opacity:1;" d="M 488.707031 318.425781 L 437.976562 318.425781 C 437.417969 318.425781 436.871094 318.371094 436.324219 318.265625 C 435.78125 318.15625 435.253906 317.996094 434.738281 317.78125 C 434.226562 317.570312 433.738281 317.308594 433.277344 317 C 432.816406 316.695312 432.390625 316.34375 431.996094 315.949219 C 431.605469 315.558594 431.253906 315.128906 430.945312 314.667969 C 430.636719 314.207031 430.375 313.71875 430.164062 313.207031 C 429.949219 312.695312 429.789062 312.164062 429.683594 311.621094 C 429.574219 311.078125 429.519531 310.527344 429.519531 309.972656 L 429.519531 259.242188 C 429.519531 258.6875 429.574219 258.136719 429.683594 257.589844 C 429.789062 257.046875 429.949219 256.519531 430.164062 256.003906 C 430.375 255.492188 430.636719 255.003906 430.945312 254.542969 C 431.253906 254.082031 431.605469 253.65625 431.996094 253.261719 C 432.390625 252.871094 432.816406 252.519531 433.277344 252.210938 C 433.738281 251.902344 434.226562 251.640625 434.738281 251.429688 C 435.253906 251.21875 435.78125 251.058594 436.324219 250.949219 C 436.871094 250.839844 437.417969 250.785156 437.976562 250.785156 L 488.707031 250.785156 C 489.261719 250.785156 489.8125 250.839844 490.355469 250.949219 C 490.898438 251.058594 491.429688 251.21875 491.941406 251.429688 C 492.453125 251.640625 492.941406 251.902344 493.402344 252.210938 C 493.863281 252.519531 494.292969 252.871094 494.683594 253.261719 C 495.078125 253.65625 495.425781 254.082031 495.734375 254.542969 C 496.042969 255.003906 496.304688 255.492188 496.515625 256.003906 C 496.730469 256.519531 496.890625 257.046875 497 257.589844 C 497.105469 258.136719 497.160156 258.6875 497.160156 259.242188 L 497.160156 309.972656 C 497.160156 310.527344 497.105469 311.078125 497 311.621094 C 496.890625 312.164062 496.730469 312.695312 496.515625 313.207031 C 496.304688 313.71875 496.042969 314.207031 495.734375 314.667969 C 495.425781 315.128906 495.078125 315.558594 494.683594 315.949219 C 494.292969 316.34375 493.863281 316.695312 493.402344 317 C 492.941406 317.308594 492.453125 317.570312 491.941406 317.78125 C 491.429688 317.996094 490.898438 318.15625 490.355469 318.265625 C 489.8125 318.371094 489.261719 318.425781 488.707031 318.425781 Z M 446.429688 301.515625 L 480.25 301.515625 L 480.25 267.695312 L 446.429688 267.695312 Z M 446.429688 301.515625 "/><path style=" stroke:none;fill-rule:nonzero;fill:#ffc23b;fill-opacity:1;" d="M 543.664062 259.242188 C 542.417969 259.242188 541.175781 259.179688 539.933594 259.058594 C 538.695312 258.9375 537.464844 258.753906 536.242188 258.511719 C 535.019531 258.265625 533.8125 257.964844 532.617188 257.601562 C 531.425781 257.242188 530.253906 256.820312 529.101562 256.34375 C 527.953125 255.867188 526.828125 255.335938 525.726562 254.75 C 524.628906 254.160156 523.5625 253.519531 522.527344 252.828125 C 521.488281 252.136719 520.488281 251.394531 519.527344 250.605469 C 518.5625 249.8125 517.640625 248.976562 516.761719 248.097656 C 515.878906 247.214844 515.042969 246.292969 514.253906 245.332031 C 513.460938 244.367188 512.71875 243.367188 512.027344 242.332031 C 511.335938 241.296875 510.695312 240.226562 510.109375 239.128906 C 509.519531 238.03125 508.988281 236.90625 508.511719 235.753906 C 508.035156 234.601562 507.617188 233.429688 507.253906 232.238281 C 506.890625 231.046875 506.589844 229.839844 506.347656 228.617188 C 506.105469 227.394531 505.921875 226.164062 505.800781 224.921875 C 505.675781 223.683594 505.617188 222.4375 505.617188 221.191406 C 505.617188 219.945312 505.675781 218.703125 505.800781 217.464844 C 505.921875 216.222656 506.105469 214.992188 506.347656 213.769531 C 506.589844 212.546875 506.890625 211.339844 507.253906 210.148438 C 507.617188 208.957031 508.035156 207.785156 508.511719 206.632812 C 508.988281 205.480469 509.519531 204.355469 510.109375 203.257812 C 510.695312 202.160156 511.335938 201.089844 512.027344 200.054688 C 512.71875 199.019531 513.460938 198.019531 514.253906 197.054688 C 515.042969 196.09375 515.878906 195.171875 516.761719 194.289062 C 517.640625 193.40625 518.5625 192.570312 519.527344 191.78125 C 520.488281 190.992188 521.488281 190.25 522.527344 189.558594 C 523.5625 188.863281 524.628906 188.226562 525.726562 187.636719 C 526.828125 187.050781 527.953125 186.519531 529.101562 186.042969 C 530.253906 185.5625 531.425781 185.144531 532.617188 184.785156 C 533.8125 184.421875 535.019531 184.121094 536.242188 183.875 C 537.464844 183.632812 538.695312 183.449219 539.933594 183.328125 C 541.175781 183.207031 542.417969 183.144531 543.664062 183.144531 C 544.910156 183.144531 546.152344 183.207031 547.394531 183.328125 C 548.632812 183.449219 549.863281 183.632812 551.085938 183.875 C 552.308594 184.121094 553.515625 184.421875 554.707031 184.785156 C 555.902344 185.144531 557.074219 185.5625 558.222656 186.042969 C 559.375 186.519531 560.5 187.050781 561.597656 187.636719 C 562.699219 188.226562 563.765625 188.863281 564.800781 189.558594 C 565.839844 190.25 566.839844 190.992188 567.800781 191.78125 C 568.765625 192.570312 569.6875 193.40625 570.566406 194.289062 C 571.449219 195.171875 572.285156 196.09375 573.074219 197.054688 C 573.867188 198.019531 574.605469 199.019531 575.300781 200.054688 C 575.992188 201.089844 576.632812 202.160156 577.21875 203.257812 C 577.808594 204.355469 578.339844 205.480469 578.816406 206.632812 C 579.292969 207.785156 579.710938 208.957031 580.074219 210.148438 C 580.433594 211.339844 580.738281 212.546875 580.980469 213.769531 C 581.222656 214.992188 581.40625 216.222656 581.527344 217.464844 C 581.652344 218.703125 581.710938 219.945312 581.710938 221.191406 C 581.710938 222.4375 581.648438 223.679688 581.523438 224.921875 C 581.402344 226.160156 581.21875 227.390625 580.972656 228.613281 C 580.730469 229.835938 580.425781 231.042969 580.0625 232.234375 C 579.703125 233.425781 579.28125 234.597656 578.804688 235.746094 C 578.328125 236.898438 577.792969 238.023438 577.207031 239.121094 C 576.617188 240.21875 575.980469 241.285156 575.285156 242.320312 C 574.59375 243.355469 573.851562 244.355469 573.0625 245.320312 C 572.273438 246.28125 571.4375 247.203125 570.554688 248.085938 C 569.675781 248.964844 568.753906 249.800781 567.789062 250.589844 C 566.828125 251.382812 565.828125 252.125 564.792969 252.816406 C 563.757812 253.507812 562.691406 254.148438 561.589844 254.734375 C 560.492188 255.324219 559.367188 255.855469 558.21875 256.332031 C 557.066406 256.8125 555.894531 257.230469 554.703125 257.59375 C 553.511719 257.957031 552.304688 258.257812 551.082031 258.503906 C 549.863281 258.746094 548.632812 258.929688 547.390625 259.054688 C 546.152344 259.175781 544.910156 259.238281 543.664062 259.242188 Z M 543.664062 200.054688 C 542.972656 200.054688 542.28125 200.089844 541.59375 200.15625 C 540.902344 200.226562 540.21875 200.328125 539.539062 200.460938 C 538.859375 200.597656 538.191406 200.765625 537.527344 200.964844 C 536.867188 201.167969 536.214844 201.398438 535.574219 201.664062 C 534.933594 201.929688 534.308594 202.226562 533.699219 202.550781 C 533.089844 202.878906 532.496094 203.234375 531.921875 203.617188 C 531.34375 204.003906 530.789062 204.414062 530.253906 204.851562 C 529.71875 205.292969 529.207031 205.757812 528.71875 206.246094 C 528.226562 206.734375 527.761719 207.25 527.324219 207.785156 C 526.886719 208.320312 526.472656 208.875 526.089844 209.449219 C 525.703125 210.023438 525.347656 210.617188 525.023438 211.230469 C 524.695312 211.839844 524.398438 212.464844 524.136719 213.105469 C 523.871094 213.742188 523.636719 214.394531 523.4375 215.058594 C 523.234375 215.71875 523.066406 216.390625 522.933594 217.070312 C 522.796875 217.75 522.695312 218.433594 522.628906 219.121094 C 522.558594 219.808594 522.527344 220.5 522.527344 221.191406 C 522.527344 221.886719 522.558594 222.574219 522.628906 223.265625 C 522.695312 223.953125 522.796875 224.636719 522.933594 225.316406 C 523.066406 225.996094 523.234375 226.667969 523.4375 227.328125 C 523.636719 227.992188 523.871094 228.640625 524.136719 229.28125 C 524.398438 229.921875 524.695312 230.546875 525.023438 231.15625 C 525.347656 231.769531 525.703125 232.359375 526.089844 232.9375 C 526.472656 233.511719 526.886719 234.066406 527.324219 234.601562 C 527.761719 235.136719 528.226562 235.648438 528.71875 236.140625 C 529.207031 236.628906 529.71875 237.09375 530.253906 237.53125 C 530.789062 237.972656 531.34375 238.382812 531.921875 238.769531 C 532.496094 239.152344 533.089844 239.507812 533.699219 239.835938 C 534.308594 240.160156 534.933594 240.457031 535.574219 240.722656 C 536.214844 240.988281 536.867188 241.21875 537.527344 241.421875 C 538.191406 241.621094 538.859375 241.789062 539.539062 241.925781 C 540.21875 242.058594 540.902344 242.160156 541.59375 242.230469 C 542.28125 242.296875 542.972656 242.332031 543.664062 242.332031 C 544.355469 242.332031 545.046875 242.296875 545.734375 242.230469 C 546.425781 242.160156 547.109375 242.058594 547.789062 241.925781 C 548.464844 241.789062 549.136719 241.621094 549.800781 241.421875 C 550.460938 241.21875 551.113281 240.988281 551.753906 240.722656 C 552.390625 240.457031 553.015625 240.160156 553.628906 239.835938 C 554.238281 239.507812 554.832031 239.152344 555.40625 238.769531 C 555.984375 238.382812 556.539062 237.972656 557.074219 237.53125 C 557.609375 237.09375 558.121094 236.628906 558.609375 236.140625 C 559.101562 235.648438 559.5625 235.136719 560.003906 234.601562 C 560.441406 234.066406 560.855469 233.511719 561.238281 232.9375 C 561.625 232.359375 561.980469 231.769531 562.304688 231.15625 C 562.632812 230.546875 562.925781 229.921875 563.191406 229.28125 C 563.457031 228.640625 563.691406 227.992188 563.890625 227.328125 C 564.09375 226.667969 564.261719 225.996094 564.394531 225.316406 C 564.53125 224.636719 564.632812 223.953125 564.699219 223.265625 C 564.769531 222.574219 564.800781 221.886719 564.800781 221.191406 C 564.800781 220.5 564.769531 219.808594 564.699219 219.121094 C 564.632812 218.433594 564.53125 217.75 564.394531 217.070312 C 564.261719 216.390625 564.09375 215.71875 563.890625 215.058594 C 563.691406 214.394531 563.457031 213.742188 563.191406 213.105469 C 562.925781 212.464844 562.632812 211.839844 562.304688 211.230469 C 561.980469 210.617188 561.625 210.023438 561.238281 209.449219 C 560.855469 208.875 560.441406 208.320312 560.003906 207.785156 C 559.5625 207.25 559.101562 206.734375 558.609375 206.246094 C 558.121094 205.757812 557.609375 205.292969 557.074219 204.851562 C 556.539062 204.414062 555.984375 204.003906 555.40625 203.617188 C 554.832031 203.234375 554.238281 202.878906 553.628906 202.550781 C 553.015625 202.226562 552.390625 201.929688 551.753906 201.664062 C 551.113281 201.398438 550.460938 201.167969 549.800781 200.964844 C 549.136719 200.765625 548.464844 200.597656 547.789062 200.460938 C 547.109375 200.328125 546.425781 200.226562 545.734375 200.15625 C 545.046875 200.089844 544.355469 200.054688 543.664062 200.054688 Z M 543.664062 200.054688 "/><path style=" stroke:none;fill-rule:nonzero;fill:#ffc23b;fill-opacity:1;" d="M 497.160156 174.691406 L 429.519531 174.691406 C 428.753906 174.691406 428.003906 174.589844 427.265625 174.382812 C 426.527344 174.179688 425.832031 173.882812 425.175781 173.488281 C 424.515625 173.09375 423.925781 172.621094 423.398438 172.066406 C 422.867188 171.511719 422.425781 170.898438 422.0625 170.222656 C 421.703125 169.546875 421.4375 168.839844 421.269531 168.089844 C 421.101562 167.34375 421.035156 166.589844 421.074219 165.824219 C 421.109375 165.058594 421.25 164.3125 421.488281 163.585938 C 421.726562 162.859375 422.058594 162.179688 422.484375 161.542969 L 456.304688 110.8125 C 456.507812 110.539062 456.726562 110.277344 456.960938 110.03125 C 457.195312 109.785156 457.445312 109.550781 457.703125 109.335938 C 457.964844 109.117188 458.238281 108.914062 458.523438 108.726562 C 458.808594 108.539062 459.101562 108.371094 459.40625 108.21875 C 459.710938 108.066406 460.023438 107.933594 460.34375 107.816406 C 460.664062 107.699219 460.988281 107.601562 461.320312 107.523438 C 461.648438 107.445312 461.984375 107.386719 462.324219 107.347656 C 462.660156 107.308594 463 107.289062 463.339844 107.289062 C 463.679688 107.289062 464.019531 107.308594 464.359375 107.347656 C 464.695312 107.386719 465.03125 107.445312 465.363281 107.523438 C 465.691406 107.601562 466.019531 107.699219 466.339844 107.816406 C 466.65625 107.933594 466.96875 108.066406 467.273438 108.21875 C 467.578125 108.371094 467.871094 108.539062 468.15625 108.726562 C 468.441406 108.914062 468.714844 109.117188 468.976562 109.335938 C 469.238281 109.550781 469.484375 109.785156 469.71875 110.03125 C 469.953125 110.277344 470.171875 110.539062 470.375 110.8125 L 504.195312 161.542969 C 504.621094 162.179688 504.953125 162.859375 505.191406 163.585938 C 505.433594 164.3125 505.570312 165.058594 505.605469 165.824219 C 505.644531 166.589844 505.578125 167.34375 505.410156 168.089844 C 505.242188 168.839844 504.976562 169.546875 504.617188 170.222656 C 504.257812 170.898438 503.8125 171.511719 503.285156 172.066406 C 502.753906 172.621094 502.164062 173.09375 501.507812 173.488281 C 500.851562 173.882812 500.152344 174.179688 499.414062 174.382812 C 498.675781 174.589844 497.925781 174.691406 497.160156 174.691406 Z M 445.3125 157.78125 L 481.367188 157.78125 L 463.339844 130.722656 Z M 445.3125 157.78125 "/><path style=" stroke:none;fill-rule:nonzero;fill:#ffc23b;fill-opacity:1;" d="M 330.53125 451.230469 L 342.488281 439.273438 L 393.21875 490 L 381.261719 501.960938 Z M 330.53125 451.230469 "/><path style=" stroke:none;fill-rule:nonzero;fill:#ffc23b;fill-opacity:1;" d="M 431.996094 552.691406 L 443.953125 540.734375 L 511.59375 608.378906 L 499.636719 620.335938 Z M 431.996094 552.691406 "/><path style=" stroke:none;fill-rule:nonzero;fill:#ffc23b;fill-opacity:1;" d="M 279.804688 451.234375 L 291.761719 439.277344 L 460.863281 608.375 L 448.90625 620.332031 Z M 279.804688 451.234375 "/><path style=" stroke:none;fill-rule:nonzero;fill:#ffc23b;fill-opacity:1;" d="M 288.261719 510.417969 L 300.21875 498.460938 L 469.316406 667.5625 L 457.359375 679.519531 Z M 288.261719 510.417969 "/><path style=" stroke:none;fill-rule:nonzero;fill:#ffc23b;fill-opacity:1;" d="M 288.257812 561.148438 L 300.214844 549.191406 L 376.3125 625.289062 L 364.355469 637.246094 Z M 288.257812 561.148438 "/><g clip-rule="nonzero" clip-path="url(#113fe03da8)"><g clip-rule="nonzero" clip-path="url(#eff90f697a)"><path style=" stroke:none;fill-rule:nonzero;fill:#ffc23b;fill-opacity:1;" d="M 148.796875 535.363281 L 162.976562 535.363281 L 162.976562 549.542969 L 148.796875 549.542969 Z M 148.796875 535.363281 "/></g></g></g></svg>