<svg xmlns="http://www.w3.org/2000/svg" xmlns:xlink="http://www.w3.org/1999/xlink" width="1080" zoomAndPan="magnify" viewBox="0 0 810 809.999993" height="1080" preserveAspectRatio="xMidYMid meet" version="1.2"><defs><clipPath id="f4101085e1"><path d="M 0 9 L 810 9 L 810 804.320312 L 0 804.320312 Z M 0 9 "/></clipPath><clipPath id="b17bc78757"><path d="M 269.320312 563.722656 L 283.5 563.722656 L 283.5 577.902344 L 269.320312 577.902344 Z M 269.320312 563.722656 "/></clipPath><clipPath id="1bb7e030aa"><path d="M 276.410156 563.722656 C 272.496094 563.722656 269.320312 566.894531 269.320312 570.8125 C 269.320312 574.726562 272.496094 577.902344 276.410156 577.902344 C 280.324219 577.902344 283.5 574.726562 283.5 570.8125 C 283.5 566.894531 280.324219 563.722656 276.410156 563.722656 Z M 276.410156 563.722656 "/></clipPath></defs><g id="b30f7d50d8"><g clip-rule="nonzero" clip-path="url(#f4101085e1)"><path style=" stroke:none;fill-rule:nonzero;fill:#ffc233;fill-opacity:1;" d="M 377.625 616.835938 C 377.625 616.109375 377.695312 615.386719 377.835938 614.675781 C 377.980469 613.960938 378.191406 613.269531 378.46875 612.597656 C 378.746094 611.925781 379.085938 611.289062 379.492188 610.683594 C 379.894531 610.082031 380.351562 609.519531 380.867188 609.007812 C 381.382812 608.492188 381.941406 608.035156 382.542969 607.628906 C 383.148438 607.226562 383.789062 606.886719 384.457031 606.609375 C 385.128906 606.328125 385.824219 606.121094 386.535156 605.976562 C 387.25 605.835938 387.96875 605.765625 388.695312 605.765625 L 421.191406 605.765625 C 421.917969 605.765625 422.636719 605.835938 423.351562 605.976562 C 424.0625 606.121094 424.757812 606.328125 425.429688 606.609375 C 426.097656 606.886719 426.738281 607.226562 427.34375 607.628906 C 427.945312 608.035156 428.503906 608.492188 429.019531 609.007812 C 429.535156 609.519531 429.992188 610.082031 430.394531 610.683594 C 430.800781 611.289062 431.140625 611.925781 431.417969 612.597656 C 431.695312 613.269531 431.90625 613.960938 432.046875 614.675781 C 432.191406 615.386719 432.261719 616.109375 432.261719 616.835938 C 432.261719 617.5625 432.191406 618.28125 432.050781 618.996094 C 431.90625 619.707031 431.695312 620.398438 431.417969 621.070312 C 431.140625 621.742188 430.800781 622.378906 430.394531 622.984375 C 429.992188 623.589844 429.535156 624.148438 429.019531 624.660156 C 428.503906 625.175781 427.945312 625.632812 427.34375 626.039062 C 426.738281 626.441406 426.097656 626.785156 425.429688 627.0625 C 424.757812 627.339844 424.0625 627.550781 423.351562 627.691406 C 422.636719 627.832031 421.917969 627.902344 421.191406 627.902344 L 388.695312 627.902344 C 387.96875 627.902344 387.25 627.832031 386.535156 627.691406 C 385.824219 627.550781 385.128906 627.339844 384.457031 627.0625 C 383.785156 626.785156 383.148438 626.441406 382.542969 626.039062 C 381.941406 625.636719 381.382812 625.175781 380.867188 624.660156 C 380.351562 624.148438 379.894531 623.589844 379.492188 622.984375 C 379.085938 622.378906 378.746094 621.742188 378.46875 621.070312 C 378.191406 620.398438 377.980469 619.707031 377.835938 618.992188 C 377.695312 618.28125 377.625 617.5625 377.625 616.835938 Z M 809.777344 166.710938 L 809.777344 629.652344 C 809.773438 631.101562 809.703125 632.546875 809.558594 633.984375 C 809.414062 635.425781 809.199219 636.855469 808.914062 638.277344 C 808.628906 639.695312 808.277344 641.097656 807.855469 642.484375 C 807.433594 643.867188 806.945312 645.230469 806.386719 646.566406 C 805.832031 647.902344 805.214844 649.210938 804.53125 650.488281 C 803.84375 651.761719 803.101562 653.003906 802.296875 654.207031 C 801.492188 655.410156 800.628906 656.570312 799.710938 657.6875 C 798.789062 658.808594 797.816406 659.878906 796.792969 660.902344 C 795.769531 661.925781 794.699219 662.894531 793.578125 663.8125 C 792.457031 664.730469 791.296875 665.59375 790.09375 666.398438 C 788.890625 667.203125 787.648438 667.945312 786.371094 668.628906 C 785.09375 669.308594 783.789062 669.929688 782.449219 670.484375 C 781.113281 671.035156 779.75 671.523438 778.367188 671.945312 C 776.980469 672.367188 775.578125 672.71875 774.15625 673 C 772.738281 673.285156 771.308594 673.496094 769.867188 673.640625 C 768.425781 673.78125 766.980469 673.855469 765.535156 673.855469 L 490.136719 673.855469 L 490.136719 734.636719 L 502.683594 734.636719 C 503.824219 734.636719 504.960938 734.695312 506.09375 734.808594 C 507.226562 734.921875 508.351562 735.089844 509.46875 735.3125 C 510.585938 735.535156 511.691406 735.8125 512.78125 736.144531 C 513.871094 736.472656 514.941406 736.859375 515.992188 737.292969 C 517.046875 737.730469 518.074219 738.21875 519.078125 738.753906 C 520.082031 739.292969 521.058594 739.878906 522.003906 740.511719 C 522.953125 741.144531 523.867188 741.820312 524.746094 742.542969 C 525.625 743.265625 526.46875 744.03125 527.273438 744.835938 C 528.082031 745.640625 528.84375 746.484375 529.566406 747.367188 C 530.289062 748.246094 530.96875 749.160156 531.601562 750.105469 C 532.234375 751.054688 532.820312 752.03125 533.355469 753.035156 C 533.894531 754.039062 534.382812 755.066406 534.816406 756.117188 C 535.253906 757.171875 535.636719 758.242188 535.96875 759.332031 C 536.300781 760.421875 536.578125 761.523438 536.800781 762.640625 C 537.023438 763.757812 537.191406 764.886719 537.304688 766.019531 C 537.417969 767.152344 537.472656 768.289062 537.476562 769.425781 L 537.476562 793.148438 C 537.476562 793.875 537.402344 794.59375 537.261719 795.308594 C 537.121094 796.019531 536.910156 796.710938 536.632812 797.382812 C 536.355469 798.054688 536.011719 798.695312 535.609375 799.296875 C 535.207031 799.902344 534.746094 800.460938 534.234375 800.976562 C 533.71875 801.488281 533.160156 801.949219 532.554688 802.351562 C 531.949219 802.753906 531.3125 803.097656 530.640625 803.375 C 529.96875 803.652344 529.277344 803.863281 528.566406 804.003906 C 527.851562 804.148438 527.132812 804.21875 526.40625 804.21875 L 283.496094 804.21875 C 282.769531 804.21875 282.050781 804.148438 281.335938 804.003906 C 280.625 803.863281 279.933594 803.652344 279.261719 803.375 C 278.589844 803.097656 277.953125 802.753906 277.347656 802.351562 C 276.742188 801.949219 276.183594 801.488281 275.667969 800.976562 C 275.15625 800.460938 274.695312 799.902344 274.292969 799.296875 C 273.890625 798.695312 273.546875 798.054688 273.269531 797.382812 C 272.992188 796.710938 272.78125 796.019531 272.640625 795.308594 C 272.5 794.59375 272.425781 793.875 272.425781 793.148438 L 272.425781 769.425781 C 272.429688 768.289062 272.484375 767.152344 272.597656 766.019531 C 272.710938 764.886719 272.878906 763.757812 273.101562 762.640625 C 273.324219 761.523438 273.601562 760.421875 273.933594 759.332031 C 274.265625 758.242188 274.648438 757.171875 275.085938 756.117188 C 275.519531 755.066406 276.007812 754.039062 276.546875 753.035156 C 277.082031 752.03125 277.667969 751.054688 278.300781 750.105469 C 278.933594 749.160156 279.613281 748.246094 280.335938 747.367188 C 281.058594 746.484375 281.820312 745.640625 282.628906 744.835938 C 283.433594 744.03125 284.277344 743.265625 285.15625 742.542969 C 286.035156 741.820312 286.949219 741.144531 287.898438 740.511719 C 288.84375 739.878906 289.820312 739.292969 290.824219 738.753906 C 291.828125 738.21875 292.855469 737.730469 293.910156 737.292969 C 294.960938 736.859375 296.03125 736.472656 297.121094 736.144531 C 298.210938 735.8125 299.316406 735.535156 300.433594 735.3125 C 301.550781 735.089844 302.675781 734.921875 303.808594 734.808594 C 304.941406 734.695312 306.078125 734.636719 307.21875 734.636719 L 319.769531 734.636719 L 319.769531 673.855469 L 44.3125 673.855469 C 42.867188 673.855469 41.421875 673.78125 39.984375 673.636719 C 38.542969 673.496094 37.113281 673.28125 35.695312 672.996094 C 34.273438 672.714844 32.871094 672.363281 31.488281 671.941406 C 30.105469 671.519531 28.742188 671.03125 27.40625 670.476562 C 26.070312 669.921875 24.761719 669.304688 23.488281 668.621094 C 22.210938 667.9375 20.972656 667.195312 19.769531 666.390625 C 18.566406 665.585938 17.40625 664.726562 16.285156 663.804688 C 15.167969 662.886719 14.097656 661.917969 13.074219 660.894531 C 12.050781 659.871094 11.082031 658.800781 10.160156 657.679688 C 9.242188 656.5625 8.382812 655.402344 7.578125 654.199219 C 6.773438 652.996094 6.03125 651.753906 5.347656 650.480469 C 4.664062 649.203125 4.046875 647.898438 3.492188 646.558594 C 2.9375 645.222656 2.449219 643.863281 2.027344 642.480469 C 1.609375 641.09375 1.257812 639.691406 0.972656 638.273438 C 0.6875 636.855469 0.476562 635.425781 0.332031 633.984375 C 0.191406 632.542969 0.117188 631.101562 0.117188 629.652344 L 0.117188 166.710938 C 0.117188 165.261719 0.191406 163.820312 0.332031 162.378906 C 0.476562 160.941406 0.691406 159.511719 0.972656 158.089844 C 1.257812 156.671875 1.609375 155.269531 2.03125 153.886719 C 2.453125 152.5 2.9375 151.140625 3.492188 149.804688 C 4.046875 148.46875 4.667969 147.160156 5.347656 145.886719 C 6.03125 144.609375 6.777344 143.371094 7.578125 142.167969 C 8.382812 140.964844 9.246094 139.804688 10.164062 138.683594 C 11.082031 137.566406 12.050781 136.496094 13.074219 135.472656 C 14.097656 134.449219 15.167969 133.480469 16.289062 132.558594 C 17.40625 131.640625 18.566406 130.78125 19.769531 129.976562 C 20.972656 129.171875 22.214844 128.429688 23.488281 127.746094 C 24.765625 127.0625 26.070312 126.445312 27.40625 125.890625 C 28.746094 125.335938 30.105469 124.847656 31.488281 124.425781 C 32.875 124.007812 34.277344 123.652344 35.695312 123.371094 C 37.113281 123.085938 38.542969 122.875 39.984375 122.730469 C 41.421875 122.585938 42.867188 122.515625 44.3125 122.511719 L 654.644531 122.511719 C 667.785156 104.679688 679.59375 89.0625 690.066406 75.660156 C 708.285156 52.367188 722.328125 35.914062 733.007812 25.363281 C 743.878906 14.625 755.386719 5.523438 765.925781 11.578125 C 777.832031 18.429688 773.785156 35.820312 768.625 53.042969 C 763.722656 69.410156 755.125 92.15625 742.375 122.511719 L 765.527344 122.511719 C 766.976562 122.511719 768.421875 122.582031 769.863281 122.726562 C 771.304688 122.871094 772.734375 123.082031 774.152344 123.363281 C 775.574219 123.648438 776.976562 124 778.363281 124.421875 C 779.746094 124.839844 781.109375 125.328125 782.445312 125.882812 C 783.785156 126.4375 785.089844 127.054688 786.367188 127.738281 C 787.644531 128.417969 788.886719 129.164062 790.089844 129.96875 C 791.292969 130.769531 792.457031 131.632812 793.574219 132.550781 C 794.695312 133.46875 795.765625 134.4375 796.792969 135.460938 C 797.816406 136.484375 798.789062 137.558594 799.707031 138.675781 C 800.625 139.792969 801.488281 140.953125 802.292969 142.15625 C 803.097656 143.359375 803.84375 144.601562 804.527344 145.878906 C 805.210938 147.152344 805.832031 148.460938 806.386719 149.796875 C 806.941406 151.132812 807.429688 152.496094 807.855469 153.878906 C 808.277344 155.265625 808.628906 156.667969 808.914062 158.085938 C 809.199219 159.507812 809.414062 160.9375 809.558594 162.378906 C 809.703125 163.816406 809.773438 165.261719 809.777344 166.710938 Z M 669.59375 139.566406 C 669.339844 139.964844 669.058594 140.347656 668.753906 140.710938 C 643.339844 175.339844 613.003906 218.136719 577.160156 269.921875 L 635.828125 303.800781 C 672.199219 226.558594 697.273438 171.585938 715.386719 129.421875 C 715.429688 129.3125 715.476562 129.203125 715.527344 129.09375 C 715.742188 128.589844 715.960938 128.082031 716.175781 127.582031 C 736.917969 79.183594 745.746094 53.707031 749.3125 40.304688 C 740.425781 49.039062 724.980469 66.40625 698.527344 100.925781 C 689.699219 112.445312 680.054688 125.324219 669.59375 139.566406 Z M 618.359375 340.785156 C 621.078125 335.046875 623.742188 329.417969 626.351562 323.894531 L 564.542969 288.203125 C 561.0625 293.253906 557.53125 298.386719 553.949219 303.601562 Z M 537.054688 319.414062 C 518.394531 327.492188 515.355469 342.648438 511.535156 369.386719 C 508.003906 394.109375 503.742188 423.910156 476.507812 447.03125 C 519.9375 460.609375 550.902344 447.863281 570.011719 433.574219 C 598 412.644531 611.882812 380.839844 612.496094 362.964844 Z M 307.207031 756.777344 C 306.378906 756.777344 305.558594 756.859375 304.742188 757.019531 C 303.929688 757.183594 303.140625 757.421875 302.371094 757.742188 C 301.605469 758.058594 300.878906 758.449219 300.1875 758.910156 C 299.496094 759.371094 298.859375 759.894531 298.273438 760.480469 C 297.6875 761.066406 297.160156 761.707031 296.699219 762.394531 C 296.238281 763.085938 295.851562 763.8125 295.53125 764.582031 C 295.214844 765.347656 294.972656 766.136719 294.8125 766.949219 C 294.648438 767.765625 294.566406 768.585938 294.566406 769.417969 L 294.566406 782.054688 L 515.324219 782.054688 L 515.324219 769.417969 C 515.324219 768.585938 515.242188 767.765625 515.082031 766.949219 C 514.917969 766.136719 514.679688 765.347656 514.359375 764.582031 C 514.042969 763.8125 513.652344 763.085938 513.191406 762.394531 C 512.730469 761.707031 512.207031 761.070312 511.621094 760.480469 C 511.035156 759.894531 510.394531 759.371094 509.707031 758.910156 C 509.015625 758.449219 508.289062 758.058594 507.523438 757.742188 C 506.753906 757.421875 505.964844 757.183594 505.152344 757.019531 C 504.335938 756.859375 503.515625 756.777344 502.6875 756.777344 Z M 467.992188 734.636719 L 467.992188 673.855469 L 341.902344 673.855469 L 341.902344 734.636719 Z M 787.636719 582.007812 L 22.253906 582.007812 L 22.253906 629.652344 C 22.253906 630.375 22.292969 631.09375 22.363281 631.8125 C 22.433594 632.53125 22.542969 633.246094 22.683594 633.953125 C 22.824219 634.664062 23 635.363281 23.210938 636.050781 C 23.421875 636.742188 23.664062 637.421875 23.941406 638.089844 C 24.214844 638.757812 24.527344 639.40625 24.867188 640.042969 C 25.207031 640.679688 25.578125 641.300781 25.980469 641.898438 C 26.378906 642.5 26.808594 643.078125 27.269531 643.636719 C 27.726562 644.195312 28.210938 644.730469 28.722656 645.242188 C 29.230469 645.75 29.765625 646.234375 30.324219 646.695312 C 30.882812 647.152344 31.460938 647.582031 32.0625 647.984375 C 32.664062 648.382812 33.28125 648.753906 33.917969 649.097656 C 34.554688 649.4375 35.207031 649.746094 35.871094 650.023438 C 36.539062 650.296875 37.21875 650.542969 37.910156 650.753906 C 38.601562 650.960938 39.300781 651.136719 40.007812 651.28125 C 40.714844 651.421875 41.429688 651.527344 42.148438 651.597656 C 42.867188 651.671875 43.585938 651.707031 44.308594 651.707031 L 765.535156 651.707031 C 766.257812 651.707031 766.976562 651.671875 767.699219 651.601562 C 768.417969 651.53125 769.132812 651.425781 769.839844 651.285156 C 770.550781 651.144531 771.25 650.96875 771.941406 650.757812 C 772.632812 650.550781 773.3125 650.308594 773.980469 650.03125 C 774.648438 649.753906 775.304688 649.445312 775.941406 649.105469 C 776.578125 648.765625 777.199219 648.394531 777.800781 647.992188 C 778.402344 647.59375 778.980469 647.164062 779.539062 646.707031 C 780.101562 646.246094 780.636719 645.761719 781.148438 645.253906 C 781.660156 644.742188 782.144531 644.207031 782.605469 643.648438 C 783.0625 643.089844 783.496094 642.511719 783.898438 641.910156 C 784.300781 641.308594 784.671875 640.691406 785.011719 640.054688 C 785.355469 639.417969 785.664062 638.765625 785.941406 638.097656 C 786.21875 637.429688 786.464844 636.75 786.675781 636.058594 C 786.886719 635.367188 787.0625 634.667969 787.207031 633.957031 C 787.347656 633.25 787.457031 632.535156 787.527344 631.816406 C 787.601562 631.097656 787.636719 630.375 787.636719 629.652344 Z M 787.636719 166.710938 C 787.636719 165.988281 787.601562 165.265625 787.527344 164.546875 C 787.457031 163.828125 787.347656 163.113281 787.207031 162.40625 C 787.0625 161.695312 786.886719 160.996094 786.675781 160.304688 C 786.464844 159.613281 786.21875 158.933594 785.941406 158.265625 C 785.664062 157.601562 785.355469 156.949219 785.015625 156.3125 C 784.671875 155.671875 784.300781 155.054688 783.898438 154.453125 C 783.496094 153.855469 783.066406 153.273438 782.605469 152.714844 C 782.144531 152.160156 781.660156 151.625 781.148438 151.113281 C 780.636719 150.601562 780.101562 150.117188 779.542969 149.660156 C 778.984375 149.203125 778.402344 148.773438 777.800781 148.371094 C 777.199219 147.96875 776.582031 147.601562 775.945312 147.257812 C 775.304688 146.917969 774.652344 146.609375 773.984375 146.335938 C 773.316406 146.058594 772.636719 145.816406 771.945312 145.605469 C 771.253906 145.394531 770.554688 145.222656 769.84375 145.082031 C 769.136719 144.9375 768.421875 144.832031 767.703125 144.761719 C 766.980469 144.691406 766.261719 144.65625 765.539062 144.65625 L 732.921875 144.65625 C 714.164062 187.976562 688.039062 245.011719 651.066406 323.378906 C 650.863281 323.925781 650.613281 324.453125 650.324219 324.960938 L 650.304688 324.992188 C 645.246094 335.710938 639.984375 346.828125 634.527344 358.335938 C 636.109375 384.132812 617.742188 425.53125 583.257812 451.320312 C 578.203125 455.164062 572.875 458.570312 567.265625 461.542969 C 561.65625 464.515625 555.84375 467.015625 549.828125 469.039062 C 543.8125 471.0625 537.671875 472.582031 531.40625 473.605469 C 525.144531 474.625 518.835938 475.132812 512.488281 475.125 C 493.734375 475.125 472.332031 470.839844 448.285156 459.847656 C 447.351562 459.421875 446.492188 458.875 445.710938 458.210938 C 444.925781 457.542969 444.25 456.785156 443.679688 455.929688 C 443.109375 455.078125 442.664062 454.160156 442.347656 453.183594 C 442.03125 452.207031 441.855469 451.203125 441.820312 450.175781 C 441.78125 449.148438 441.886719 448.136719 442.132812 447.140625 C 442.375 446.140625 442.753906 445.195312 443.261719 444.304688 C 443.769531 443.410156 444.390625 442.605469 445.121094 441.882812 C 445.855469 441.164062 446.671875 440.558594 447.574219 440.0625 C 481.730469 421.390625 485.554688 394.613281 489.605469 366.261719 C 493.316406 340.300781 497.511719 310.988281 530.9375 297.992188 C 538 287.699219 544.871094 277.714844 551.550781 268.035156 C 551.566406 268.007812 551.578125 267.976562 551.59375 267.949219 C 551.898438 267.433594 552.238281 266.941406 552.621094 266.480469 C 585.558594 218.792969 614.050781 178.359375 638.476562 144.660156 L 44.3125 144.660156 C 43.589844 144.660156 42.871094 144.699219 42.152344 144.769531 C 41.433594 144.839844 40.722656 144.945312 40.011719 145.089844 C 39.304688 145.230469 38.605469 145.40625 37.914062 145.613281 C 37.222656 145.824219 36.542969 146.066406 35.878906 146.34375 C 35.210938 146.621094 34.558594 146.929688 33.921875 147.269531 C 33.285156 147.609375 32.667969 147.980469 32.066406 148.382812 C 31.464844 148.785156 30.886719 149.214844 30.328125 149.671875 C 29.769531 150.128906 29.234375 150.613281 28.726562 151.125 C 28.214844 151.636719 27.730469 152.167969 27.269531 152.726562 C 26.8125 153.285156 26.382812 153.863281 25.980469 154.464844 C 25.582031 155.066406 25.210938 155.683594 24.867188 156.320312 C 24.527344 156.957031 24.21875 157.609375 23.941406 158.273438 C 23.664062 158.941406 23.421875 159.621094 23.210938 160.3125 C 23 161.003906 22.824219 161.703125 22.683594 162.410156 C 22.542969 163.117188 22.433594 163.832031 22.363281 164.550781 C 22.292969 165.269531 22.257812 165.988281 22.253906 166.710938 L 22.253906 559.863281 L 787.636719 559.863281 Z M 400.042969 201.089844 L 400.042969 509.164062 C 400.042969 509.890625 399.972656 510.613281 399.832031 511.324219 C 399.691406 512.039062 399.480469 512.730469 399.203125 513.402344 C 398.921875 514.074219 398.582031 514.710938 398.179688 515.316406 C 397.773438 515.917969 397.316406 516.480469 396.800781 516.992188 C 396.289062 517.507812 395.730469 517.964844 395.125 518.371094 C 394.519531 518.773438 393.882812 519.113281 393.210938 519.390625 C 392.539062 519.671875 391.847656 519.878906 391.132812 520.023438 C 390.421875 520.164062 389.703125 520.234375 388.976562 520.234375 L 72.285156 520.234375 C 71.554688 520.234375 70.835938 520.164062 70.125 520.023438 C 69.410156 519.878906 68.71875 519.671875 68.046875 519.390625 C 67.375 519.113281 66.738281 518.773438 66.132812 518.371094 C 65.527344 517.964844 64.96875 517.507812 64.457031 516.992188 C 63.941406 516.480469 63.484375 515.917969 63.078125 515.316406 C 62.675781 514.710938 62.335938 514.074219 62.054688 513.402344 C 61.777344 512.730469 61.566406 512.039062 61.425781 511.324219 C 61.285156 510.613281 61.214844 509.890625 61.214844 509.164062 L 61.214844 201.089844 C 61.214844 200.363281 61.285156 199.644531 61.425781 198.929688 C 61.566406 198.21875 61.777344 197.523438 62.054688 196.851562 C 62.335938 196.183594 62.675781 195.542969 63.078125 194.9375 C 63.484375 194.335938 63.941406 193.777344 64.457031 193.261719 C 64.96875 192.746094 65.527344 192.289062 66.132812 191.886719 C 66.738281 191.480469 67.375 191.140625 68.046875 190.863281 C 68.71875 190.585938 69.410156 190.375 70.125 190.234375 C 70.835938 190.089844 71.554688 190.019531 72.285156 190.019531 L 388.976562 190.019531 C 389.703125 190.019531 390.421875 190.089844 391.132812 190.234375 C 391.847656 190.375 392.539062 190.585938 393.210938 190.863281 C 393.882812 191.140625 394.519531 191.480469 395.125 191.886719 C 395.730469 192.289062 396.289062 192.746094 396.800781 193.261719 C 397.316406 193.777344 397.773438 194.335938 398.179688 194.9375 C 398.582031 195.542969 398.921875 196.183594 399.203125 196.851562 C 399.480469 197.523438 399.691406 198.21875 399.832031 198.929688 C 399.972656 199.644531 400.042969 200.363281 400.042969 201.089844 Z M 271.410156 498.09375 L 194.378906 413.402344 L 194.308594 413.328125 L 156.96875 372.289062 C 156.519531 371.789062 156.023438 371.34375 155.484375 370.949219 C 154.941406 370.554688 154.363281 370.222656 153.75 369.949219 C 153.140625 369.675781 152.503906 369.46875 151.851562 369.332031 C 151.195312 369.191406 150.53125 369.121094 149.863281 369.121094 C 149.191406 369.117188 148.527344 369.1875 147.871094 369.328125 C 147.21875 369.464844 146.582031 369.667969 145.96875 369.941406 C 145.355469 370.210938 144.78125 370.546875 144.238281 370.9375 C 143.695312 371.332031 143.195312 371.777344 142.746094 372.273438 L 83.355469 437.566406 L 83.355469 498.101562 Z M 377.894531 437.515625 L 290.457031 341.453125 C 290.007812 340.957031 289.511719 340.515625 288.96875 340.125 C 288.425781 339.730469 287.851562 339.402344 287.238281 339.128906 C 286.628906 338.859375 285.996094 338.65625 285.339844 338.519531 C 284.6875 338.378906 284.027344 338.308594 283.355469 338.308594 C 282.6875 338.308594 282.027344 338.378906 281.375 338.519531 C 280.71875 338.65625 280.085938 338.859375 279.476562 339.128906 C 278.863281 339.402344 278.289062 339.730469 277.746094 340.125 C 277.203125 340.515625 276.707031 340.957031 276.257812 341.453125 L 217.554688 405.980469 L 301.34375 498.09375 L 377.890625 498.09375 Z M 377.894531 212.160156 L 83.355469 212.160156 L 83.355469 404.652344 L 126.351562 357.382812 C 127.09375 356.566406 127.878906 355.789062 128.699219 355.050781 C 129.523438 354.316406 130.382812 353.625 131.277344 352.976562 C 132.171875 352.332031 133.097656 351.734375 134.054688 351.183594 C 135.011719 350.632812 135.996094 350.136719 137.003906 349.6875 C 138.015625 349.242188 139.046875 348.847656 140.097656 348.507812 C 141.144531 348.167969 142.210938 347.882812 143.292969 347.65625 C 144.371094 347.429688 145.460938 347.257812 146.558594 347.140625 C 147.65625 347.027344 148.757812 346.96875 149.863281 346.96875 C 150.964844 346.972656 152.066406 347.027344 153.164062 347.144531 C 154.261719 347.257812 155.351562 347.433594 156.433594 347.660156 C 157.511719 347.890625 158.578125 348.175781 159.628906 348.515625 C 160.679688 348.855469 161.707031 349.25 162.71875 349.695312 C 163.726562 350.144531 164.710938 350.644531 165.667969 351.195312 C 166.625 351.746094 167.550781 352.34375 168.445312 352.988281 C 169.339844 353.636719 170.195312 354.328125 171.019531 355.066406 C 171.839844 355.800781 172.625 356.578125 173.363281 357.398438 L 202.589844 389.523438 L 259.886719 326.542969 C 260.628906 325.726562 261.410156 324.953125 262.230469 324.21875 C 263.054688 323.484375 263.910156 322.796875 264.804688 322.152344 C 265.699219 321.507812 266.625 320.910156 267.582031 320.363281 C 268.539062 319.816406 269.519531 319.320312 270.527344 318.875 C 271.535156 318.429688 272.5625 318.035156 273.613281 317.699219 C 274.660156 317.359375 275.722656 317.078125 276.800781 316.847656 C 277.878906 316.621094 278.96875 316.449219 280.0625 316.335938 C 281.160156 316.222656 282.257812 316.164062 283.359375 316.164062 C 284.460938 316.164062 285.5625 316.222656 286.65625 316.335938 C 287.753906 316.449219 288.839844 316.621094 289.917969 316.847656 C 290.996094 317.078125 292.058594 317.359375 293.109375 317.699219 C 294.15625 318.035156 295.183594 318.429688 296.191406 318.875 C 297.199219 319.320312 298.183594 319.816406 299.136719 320.363281 C 300.09375 320.910156 301.019531 321.507812 301.914062 322.152344 C 302.808594 322.796875 303.664062 323.484375 304.488281 324.21875 C 305.308594 324.953125 306.09375 325.726562 306.832031 326.542969 L 377.894531 404.621094 Z M 113.65625 270.566406 C 113.65625 269.535156 113.707031 268.507812 113.808594 267.480469 C 113.910156 266.457031 114.0625 265.4375 114.261719 264.425781 C 114.464844 263.417969 114.714844 262.417969 115.011719 261.433594 C 115.3125 260.445312 115.660156 259.476562 116.054688 258.523438 C 116.449219 257.570312 116.886719 256.640625 117.375 255.730469 C 117.859375 254.824219 118.390625 253.941406 118.960938 253.082031 C 119.535156 252.226562 120.148438 251.398438 120.800781 250.601562 C 121.457031 249.804688 122.148438 249.042969 122.875 248.316406 C 123.605469 247.585938 124.367188 246.894531 125.164062 246.242188 C 125.960938 245.585938 126.785156 244.972656 127.644531 244.402344 C 128.5 243.828125 129.382812 243.300781 130.292969 242.8125 C 131.203125 242.328125 132.132812 241.886719 133.085938 241.492188 C 134.035156 241.097656 135.007812 240.75 135.992188 240.453125 C 136.980469 240.152344 137.976562 239.902344 138.988281 239.703125 C 140 239.5 141.015625 239.351562 142.042969 239.25 C 143.070312 239.148438 144.097656 239.097656 145.128906 239.097656 C 146.15625 239.097656 147.1875 239.148438 148.210938 239.25 C 149.238281 239.351562 150.257812 239.5 151.265625 239.703125 C 152.277344 239.902344 153.277344 240.152344 154.261719 240.453125 C 155.25 240.75 156.21875 241.097656 157.171875 241.492188 C 158.121094 241.886719 159.054688 242.328125 159.960938 242.8125 C 160.871094 243.300781 161.753906 243.828125 162.609375 244.402344 C 163.46875 244.972656 164.292969 245.585938 165.089844 246.242188 C 165.886719 246.894531 166.652344 247.585938 167.378906 248.316406 C 168.109375 249.042969 168.800781 249.804688 169.453125 250.601562 C 170.105469 251.398438 170.71875 252.226562 171.292969 253.082031 C 171.867188 253.941406 172.394531 254.824219 172.878906 255.730469 C 173.367188 256.640625 173.808594 257.570312 174.203125 258.523438 C 174.59375 259.476562 174.941406 260.445312 175.242188 261.433594 C 175.539062 262.417969 175.789062 263.417969 175.992188 264.425781 C 176.191406 265.4375 176.34375 266.457031 176.445312 267.480469 C 176.546875 268.507812 176.597656 269.535156 176.597656 270.566406 C 176.597656 271.597656 176.546875 272.625 176.445312 273.652344 C 176.34375 274.675781 176.191406 275.695312 175.992188 276.707031 C 175.789062 277.71875 175.539062 278.714844 175.242188 279.703125 C 174.941406 280.6875 174.59375 281.65625 174.203125 282.609375 C 173.808594 283.5625 173.367188 284.492188 172.878906 285.402344 C 172.394531 286.308594 171.867188 287.191406 171.292969 288.050781 C 170.71875 288.90625 170.105469 289.734375 169.453125 290.53125 C 168.800781 291.328125 168.109375 292.089844 167.378906 292.820312 C 166.652344 293.546875 165.886719 294.238281 165.089844 294.894531 C 164.292969 295.546875 163.46875 296.160156 162.609375 296.734375 C 161.753906 297.304688 160.871094 297.835938 159.960938 298.320312 C 159.054688 298.804688 158.121094 299.246094 157.171875 299.640625 C 156.21875 300.035156 155.25 300.382812 154.261719 300.679688 C 153.277344 300.980469 152.277344 301.230469 151.265625 301.429688 C 150.257812 301.632812 149.238281 301.785156 148.210938 301.882812 C 147.1875 301.984375 146.15625 302.035156 145.128906 302.035156 C 144.097656 302.035156 143.070312 301.984375 142.042969 301.882812 C 141.019531 301.78125 140 301.628906 138.992188 301.425781 C 137.980469 301.222656 136.980469 300.972656 135.996094 300.675781 C 135.011719 300.375 134.042969 300.027344 133.089844 299.632812 C 132.136719 299.238281 131.207031 298.796875 130.300781 298.3125 C 129.390625 297.824219 128.507812 297.296875 127.652344 296.722656 C 126.796875 296.148438 125.96875 295.535156 125.171875 294.882812 C 124.375 294.230469 123.613281 293.539062 122.882812 292.808594 C 122.15625 292.082031 121.464844 291.320312 120.8125 290.523438 C 120.15625 289.726562 119.542969 288.898438 118.972656 288.042969 C 118.398438 287.1875 117.871094 286.304688 117.382812 285.394531 C 116.898438 284.488281 116.457031 283.554688 116.0625 282.605469 C 115.667969 281.652344 115.320312 280.683594 115.019531 279.699219 C 114.71875 278.710938 114.46875 277.714844 114.269531 276.703125 C 114.066406 275.695312 113.914062 274.675781 113.8125 273.648438 C 113.710938 272.625 113.660156 271.597656 113.65625 270.566406 Z M 135.796875 270.566406 C 135.796875 271.179688 135.859375 271.785156 135.976562 272.386719 C 136.097656 272.984375 136.273438 273.566406 136.507812 274.132812 C 136.746094 274.699219 137.03125 275.234375 137.371094 275.742188 C 137.710938 276.253906 138.097656 276.722656 138.53125 277.15625 C 138.964844 277.585938 139.4375 277.972656 139.945312 278.3125 C 140.453125 278.652344 140.992188 278.941406 141.558594 279.171875 C 142.125 279.40625 142.707031 279.585938 143.304688 279.703125 C 143.90625 279.820312 144.511719 279.882812 145.125 279.882812 C 145.738281 279.878906 146.34375 279.820312 146.941406 279.699219 C 147.542969 279.582031 148.125 279.402344 148.691406 279.167969 C 149.257812 278.933594 149.792969 278.648438 150.300781 278.308594 C 150.8125 277.96875 151.28125 277.582031 151.714844 277.148438 C 152.148438 276.714844 152.53125 276.242188 152.871094 275.734375 C 153.210938 275.226562 153.5 274.6875 153.734375 274.125 C 153.96875 273.558594 154.144531 272.976562 154.261719 272.375 C 154.382812 271.773438 154.441406 271.167969 154.441406 270.554688 C 154.441406 269.945312 154.382812 269.339844 154.261719 268.738281 C 154.140625 268.136719 153.964844 267.554688 153.730469 266.988281 C 153.496094 266.425781 153.210938 265.886719 152.871094 265.378906 C 152.53125 264.871094 152.144531 264.398438 151.710938 263.964844 C 151.277344 263.535156 150.808594 263.148438 150.296875 262.808594 C 149.789062 262.46875 149.25 262.179688 148.6875 261.945312 C 148.121094 261.710938 147.539062 261.535156 146.9375 261.414062 C 146.335938 261.296875 145.730469 261.238281 145.121094 261.238281 C 144.507812 261.238281 143.902344 261.296875 143.300781 261.417969 C 142.699219 261.539062 142.117188 261.714844 141.550781 261.949219 C 140.984375 262.183594 140.449219 262.472656 139.941406 262.8125 C 139.429688 263.152344 138.960938 263.539062 138.527344 263.972656 C 138.09375 264.40625 137.707031 264.875 137.367188 265.386719 C 137.027344 265.894531 136.742188 266.433594 136.507812 267 C 136.273438 267.5625 136.097656 268.148438 135.976562 268.746094 C 135.855469 269.347656 135.796875 269.953125 135.796875 270.566406 Z M 135.796875 270.566406 "/></g><g clip-rule="nonzero" clip-path="url(#b17bc78757)"><g clip-rule="nonzero" clip-path="url(#1bb7e030aa)"><path style=" stroke:none;fill-rule:nonzero;fill:#ffc233;fill-opacity:1;" d="M 269.320312 563.722656 L 283.5 563.722656 L 283.5 577.902344 L 269.320312 577.902344 Z M 269.320312 563.722656 "/></g></g></g></svg>